<svg width="22" height="22" viewBox="0 0 22 22" fill="none" xmlns="http://www.w3.org/2000/svg">
<path fill-rule="evenodd" clip-rule="evenodd" d="M10.8949 0C8.70748 0.0421457 6.52009 0.716477 4.75336 1.98085C1.89293 3.96169 0.0841302 7.3755 0 10.9157C1.13576 10.9157 2.22945 10.8736 3.36521 10.7893C4.83749 10.6629 6.30977 10.5364 7.61378 9.86209C9.00193 9.14561 9.96943 7.79695 10.348 6.32185C10.7578 4.64554 10.8072 2.91368 10.8563 1.19391C10.8677 0.795005 10.879 0.396756 10.8949 0ZM11.1475 0C14.3023 0.0421457 17.3731 1.4751 19.3922 3.91955C21.0328 5.85825 21.9582 8.38699 22.0003 10.9157C21.589 10.897 21.1776 10.8824 20.7663 10.8679H20.7663C19.3268 10.8169 17.8872 10.7659 16.4477 10.5364C15.1436 10.3257 13.8817 9.7778 12.9983 8.7663C12.0729 7.79695 11.6522 6.49044 11.484 5.18392C11.2316 3.45595 11.1895 1.72797 11.1475 0ZM1.19415 11.1707H1.19415H1.19414C0.808832 11.157 0.424553 11.1434 0.0419922 11.1264C0.0840573 13.7394 1.05155 16.3103 2.77622 18.2069C4.79535 20.567 7.8661 21.9579 10.9369 22V22C10.8948 20.4827 10.8527 18.9655 10.6845 17.4483C10.5162 15.9732 10.1376 14.4559 9.12805 13.318C8.24469 12.3486 7.0248 11.8007 5.76285 11.5479C4.25249 11.2788 2.71535 11.2245 1.19417 11.1707H1.19415ZM20.8014 11.1844C19.6025 11.2397 18.4037 11.295 17.2048 11.4214C15.9849 11.59 14.6809 11.885 13.6714 12.6437C12.5777 13.4866 11.8626 14.7509 11.6102 16.0996C11.3002 17.6869 11.244 19.3025 11.1877 20.9232L11.1877 20.9232V20.9233C11.1752 21.282 11.1627 21.641 11.1475 22C13.7134 21.9579 16.2794 21.0306 18.2144 19.3027C20.57 17.2797 21.9582 14.203 22.0003 11.1264C21.6006 11.1475 21.201 11.1659 20.8014 11.1844Z" fill="#666666"/>
</svg>
