<svg width="22" height="17" viewBox="0 0 22 17" fill="none" xmlns="http://www.w3.org/2000/svg">
<path d="M21.9695 0.353943C21.8778 0.125131 21.7862 0.0679285 21.664 0.039327C21.3279 -0.0750789 20.8086 0.0965301 20.8086 0.0965301C20.8086 0.0965301 1.5021 6.56046 0.402366 7.2755C0.15798 7.41851 0.0968835 7.53291 0.0357869 7.61872C-0.147503 8.13354 0.432914 8.36235 0.432914 8.36235L5.41228 9.87823C5.41228 9.87823 5.59557 9.90683 5.65667 9.87823C6.78696 9.2204 17.0206 3.15689 17.601 2.95668C17.6927 2.92808 17.7538 2.95668 17.7538 3.01388C17.5399 3.78612 8.6504 11.1939 8.6504 11.1939C8.6504 11.1939 8.61985 11.2225 8.5893 11.2797L8.10053 15.8845C8.10053 15.8845 7.91724 17.286 9.41411 15.8845C10.4833 14.8835 11.5219 14.054 12.0107 13.6536C13.7214 14.7691 15.5543 15.9703 16.3486 16.6282C16.7457 16.9428 17.0817 17 17.3567 17C18.1204 16.9714 18.3342 16.1992 18.3342 16.1992C18.3342 16.1992 21.8473 2.95668 21.9695 1.18339C21.9695 1.01178 22 0.897371 22 0.782965C22 0.582754 22 0.439747 21.9695 0.353943Z" fill="#666666"/>
</svg>
