<svg width="22" height="12" viewBox="0 0 22 12" fill="none" xmlns="http://www.w3.org/2000/svg">
<path d="M0.384049 0.699294C1.39105 0.699294 3.48896 0.699294 4.20225 0.699294C4.37008 0.699294 4.49595 0.781781 4.53791 0.905511C5.41903 2.80271 6.50995 4.49369 7.76869 5.97846C7.89457 6.14343 8.14632 6.14343 8.23023 5.93721C8.64981 4.98861 9.3631 2.63774 7.93653 0.946755C7.81065 0.781781 7.85261 0.575563 8.0624 0.493077C9.53094 -0.0843319 10.9575 -0.208062 12.3421 0.41059C12.6358 0.53432 12.8456 0.823024 12.8456 1.15297L13.1813 5.97846C13.1813 6.18467 13.3911 6.34965 13.6009 6.3084C15.1953 5.97846 16.1603 3.62758 17.0834 1.15297C17.2093 0.864268 17.503 0.65805 17.8387 0.65805H21.3632C21.6569 0.65805 21.8666 0.905511 21.8247 1.19422C21.489 2.92644 19.6848 5.19483 18.7617 6.3084C18.4261 6.67959 18.4261 7.21576 18.7617 7.62819L21.9086 11.3401C22.1184 11.5876 21.9506 12 21.5729 12H17.5869C17.2512 12 16.9575 11.8763 16.7058 11.6288L13.8946 9.36042C13.7687 9.19545 13.475 9.1542 13.3491 9.31917C13.0135 9.73161 13.0135 10.2265 12.8456 11.3813C12.8037 11.7525 12.468 12 12.0904 12H9.3631C8.98548 12 8.60786 11.9175 8.23023 11.7525C6.71974 11.0102 2.44 8.45306 0.00642563 1.19422C-0.0355326 0.946755 0.1323 0.699294 0.384049 0.699294Z" fill="#666666"/>
</svg>
