<svg width="38" height="38" viewBox="0 0 38 38" fill="none" xmlns="http://www.w3.org/2000/svg">
<g clip-path="url(#clip0_98_2851)">
<path d="M22.6 0H14.5C6.5 0 0 6.5 0 14.5V22.6C0 30.6 6.5 37.1 14.5 37.1H22.6C25.4 37.1 28 36.3 30.2 34.9C34.3 32.3 37.1 27.8 37.1 22.6V14.5C37.1 6.5 30.6 0 22.6 0ZM27.8 16.8L27.3 17.2L23.4 20.2C23.2 20.3 23.1 20.5 23 20.7C22.8 21 22.8 21.4 22.9 21.7L24.5 27.1C24.7 27.6 24.4 27.8 24 27.5L23.5 27.1L19.4 24.3C19 24 18.2 24 17.8 24.3L13.2 27.5C12.8 27.8 12.5 27.6 12.7 27.1L14.3 21.7C14.5 21.2 14.2 20.5 13.8 20.2L9.5 17L9.3 16.8C8.9 16.5 9 16.2 9.5 16.2L15.1 16.1C15.3 16.1 15.4 16.1 15.6 16C16 15.8 16.3 15.5 16.4 15.2L18 10.6L18.2 9.9C18.4 9.4 18.7 9.4 18.8 9.9L20.6 15.2C20.8 15.7 21.4 16.1 21.9 16.1L27.5 16.2C28.1 16.2 28.2 16.5 27.8 16.8Z" fill="#FF6400"/>
</g>
<defs>
<clipPath id="clip0_98_2851">
<rect width="37.1" height="37.1" fill="white"/>
</clipPath>
</defs>
</svg>
