<svg width="38" height="38" viewBox="0 0 38 38" fill="none" xmlns="http://www.w3.org/2000/svg">
<g clip-path="url(#clip0_98_2834)">
<path d="M22.6 0H14.5C6.5 0 0 6.5 0 14.5V22.6C0 30.6 6.5 37.1 14.5 37.1H22.6C25.4 37.1 28 36.3 30.2 34.9C34.3 32.3 37.1 27.8 37.1 22.6V14.5C37.1 6.5 30.6 0 22.6 0ZM22.5 11.7C23 11.1 23.6 10.6 23.7 10.7C23.8 10.8 23.5 11.3 22.9 12C22.4 12.6 21.9 13.1 21.8 13C21.7 13 22 12.4 22.5 11.7ZM23.3 14.6C23.2 14.7 23 14.9 21.9 15.1C21 15.3 19.8 15.4 18.5 15.4C17.3 15.4 16.1 15.3 15.1 15.1C14.1 14.9 13.8 14.6 13.7 14.6C13.8 14.5 14 14.3 15.1 14.1C16 13.9 17.2 13.8 18.5 13.8C19.7 13.8 20.9 13.9 21.9 14.1C22.9 14.3 23.2 14.5 23.3 14.6ZM20.5 10.8C20.8 10 21.2 9.3 21.4 9.4C21.6 9.5 21.4 10.2 21.1 11C20.8 11.8 20.4 12.5 20.3 12.4C20.1 12.3 20.2 11.6 20.5 10.8ZM18.6 8.5C18.8 8.5 18.9 9.3 18.9 10.3C18.9 11.3 18.7 12.1 18.6 12.1C18.5 12.1 18.3 11.3 18.3 10.3C18.2 9.3 18.4 8.5 18.6 8.5ZM15.7 9.4C15.9 9.3 16.3 10 16.6 10.8C16.9 11.6 17 12.4 16.9 12.4C16.8 12.4 16.4 11.8 16.1 11C15.7 10.1 15.5 9.4 15.7 9.4ZM13.4 10.8C13.5 10.7 14.1 11.1 14.6 11.8C15.1 12.4 15.4 13 15.3 13.1C15.2 13.2 14.7 12.7 14.2 12.1C13.6 11.4 13.2 10.9 13.4 10.8ZM12.1 12.8C12.2 12.7 12.7 12.8 13.2 13.2C13.7 13.6 14 14 13.9 14C13.8 14.1 13.4 13.9 12.8 13.5C12.4 13.3 12 12.9 12.1 12.8ZM20.6 22C18 24.2 19.3 26.9 21.3 26.9C23.3 26.9 23 28.5 18.6 28.5C14.1 28.5 13.9 26.9 15.9 26.9C17.9 26.9 19.2 24.2 16.6 22C14.4 20.1 13.6 17.8 13.5 15.2C13.8 15.4 14.3 15.6 15 15.8C16 16 17.3 16.2 18.7 16.2C20.1 16.2 21.4 16.1 22.4 15.8C23.1 15.6 23.6 15.4 23.8 15.2C23.6 17.9 22.8 20.2 20.6 22ZM24.2 13.6C23.7 13.9 23.2 14.2 23.1 14.1C23 14 23.3 13.6 23.8 13.3C24.3 12.9 24.8 12.8 24.9 12.9C25.1 12.9 24.7 13.3 24.2 13.6Z" fill="#FF6400"/>
<path d="M19.1 20.9C19 20.9 19 20.8 18.9 20.8C18.9 20.7 18.7999 20.7 18.7999 20.6V18.6C18.7999 18.4 18.7999 18.3 18.7999 18.1C18.7999 17.9 18.7999 17.7 18.7999 17.6H18.5C18.4 17.7 18.3 17.8 18.1 17.9C17.9 18 17.7 18 17.4 18H17.2V18.3H18.1V20.7C18.1 20.8 18.1 20.9 18 20.9C18 21 17.8999 21 17.7999 21C17.6999 21 17.6 21 17.5 21C17.4 21 17.2 21 17.2 21V21.2H19.6V21C19.5 21 19.3999 21 19.2999 21C19.2999 21 19.2 20.9 19.1 20.9Z" fill="#FF6400"/>
</g>
<defs>
<clipPath id="clip0_98_2834">
<rect width="37.1" height="37.1" fill="white"/>
</clipPath>
</defs>
</svg>
