<svg width="38" height="38" viewBox="0 0 38 38" fill="none" xmlns="http://www.w3.org/2000/svg">
<g clip-path="url(#clip0_98_2838)">
<path d="M22.6 0H14.5C6.5 0 0 6.5 0 14.5V22.6C0 30.6 6.5 37.1 14.5 37.1H22.6C25.4 37.1 28 36.3 30.2 34.9C34.3 32.3 37.1 27.8 37.1 22.6V14.5C37.1 6.5 30.6 0 22.6 0ZM15.4 12.4C15.4 11.6 16 11 16.8 11H20.3C21.1 11 21.7 11.6 21.7 12.4V13.5C21.7 13.6 21.5 13.7 21.3 13.7H20.9C20.7 13.7 20.5 13.6 20.5 13.5V12.4C20.5 12.3 20.4 12.2 20.3 12.2H16.8C16.7 12.2 16.6 12.3 16.6 12.4V13.5C16.6 13.6 16.4 13.7 16.2 13.7H15.8C15.6 13.7 15.4 13.6 15.4 13.5V12.4ZM26.6 25.1C26.6 25.6 26.2 26 25.7 26H11.4C10.9 26 10.5 25.6 10.5 25.1V20.5C10.7 20.6 10.8 20.6 10.9 20.6C12.8 21.3 14.8 21.7 17 21.9V22.6C17 23.2 17.5 23.7 18.1 23.7H18.8C19.4 23.7 19.9 23.2 19.9 22.6V22C21.9 21.9 23.8 21.5 25.6 20.9C25.7 20.9 25.8 20.8 25.9 20.8L26.3 20.6C26.4 20.6 26.4 20.5 26.5 20.5V25.1H26.6ZM18 22.1H19.1C19.3 22.1 19.5 22.3 19.5 22.5V23C19.5 23.2 19.3 23.4 19.1 23.4H18C17.8 23.4 17.6 23.2 17.6 23V22.5C17.6 22.2 17.8 22.1 18 22.1ZM17.6 21.1V20.7C17.6 20.5 17.8 20.3 18 20.3H19.1C19.3 20.3 19.5 20.5 19.5 20.7V21.1C19.5 21.3 19.3 21.5 19.1 21.5H18C17.8 21.4 17.6 21.3 17.6 21.1ZM26.9 19.2C26.9 19.3 26.8 19.4 26.7 19.5C26.7 19.5 26 19.8 25.5 20C23.8 20.6 21.9 20.9 20 21.1V20.5C20 20 19.4 19.6 18.9 19.6H18.2C17.8 19.6 17.1 19.9 17.1 20.3V21C14.9 20.9 12.7 20.4 10.8 19.6C10.5 19.5 10.4 19.4 10.4 19.4C10.3 19.4 10.2 19.2 10.2 19.1V15.1C10.2 14.6 10.6 14.2 11.1 14.2H26.1C26.6 14.2 27 14.6 27 15.1V19.2H26.9Z" fill="#FF6400"/>
</g>
<defs>
<clipPath id="clip0_98_2838">
<rect width="37.1" height="37.1" fill="white"/>
</clipPath>
</defs>
</svg>
