<svg width="38" height="38" viewBox="0 0 38 38" fill="none" xmlns="http://www.w3.org/2000/svg">
<g clip-path="url(#clip0_98_2840)">
<path d="M15.4002 19.6H14.7002C14.4002 19.6 14.2002 19.8 14.2002 20.1V21C14.2002 21.3 14.4002 21.5 14.7002 21.5H15.4002C15.7002 21.5 15.9002 21.3 15.9002 21V20C15.9002 19.8 15.7002 19.6 15.4002 19.6Z" fill="#FF6400"/>
<path d="M15.4002 21.9H14.7002C14.4002 21.9 14.2002 22.1 14.2002 22.4V23.3C14.2002 23.6 14.4002 23.8 14.7002 23.8H15.4002C15.7002 23.8 15.9002 23.6 15.9002 23.3V22.4C15.9002 22.1 15.7002 21.9 15.4002 21.9Z" fill="#FF6400"/>
<path d="M22.3001 21.9H21.6001C21.3001 21.9 21.1001 22.1 21.1001 22.4V23.3C21.1001 23.6 21.3001 23.8 21.6001 23.8H22.3001C22.6001 23.8 22.8001 23.6 22.8001 23.3V22.4C22.8001 22.1 22.6001 21.9 22.3001 21.9Z" fill="#FF6400"/>
<path d="M13.4002 19.6H12.7002C12.4002 19.6 12.2002 19.8 12.2002 20.1V21C12.2002 21.3 12.4002 21.5 12.7002 21.5H13.4002C13.7002 21.5 13.9002 21.3 13.9002 21V20C13.8002 19.8 13.6002 19.6 13.4002 19.6Z" fill="#FF6400"/>
<path d="M13.4002 21.9H12.7002C12.4002 21.9 12.2002 22.1 12.2002 22.4V23.3C12.2002 23.6 12.4002 23.8 12.7002 23.8H13.4002C13.7002 23.8 13.9002 23.6 13.9002 23.3V22.4C13.8002 22.1 13.6002 21.9 13.4002 21.9Z" fill="#FF6400"/>
<path d="M24.4002 21.9H23.7002C23.4002 21.9 23.2002 22.1 23.2002 22.4V23.3C23.2002 23.6 23.4002 23.8 23.7002 23.8H24.4002C24.7002 23.8 24.9002 23.6 24.9002 23.3V22.4C24.8002 22.1 24.6002 21.9 24.4002 21.9Z" fill="#FF6400"/>
<path d="M22.3001 19.6H21.6001C21.3001 19.6 21.1001 19.8 21.1001 20.1V21C21.1001 21.3 21.3001 21.5 21.6001 21.5H22.3001C22.6001 21.5 22.8001 21.3 22.8001 21V20C22.8001 19.8 22.6001 19.6 22.3001 19.6Z" fill="#FF6400"/>
<path d="M22.6 0H14.5C6.5 0 0 6.5 0 14.5V22.6C0 30.6 6.5 37.1 14.5 37.1H22.6C25.4 37.1 28 36.3 30.2 34.9C34.3 32.3 37.1 27.8 37.1 22.6V14.5C37.1 6.5 30.6 0 22.6 0ZM10.9 16.1L12.2 15.1C12.4 14.9 12.6 14.6 12.6 14.4V10.8C12.6 10.5 12.8 10.3 13.1 10.3H14.4C14.7 10.3 14.9 10.5 14.9 10.8V12.6C14.9 12.8 15 12.9 15.1 12.9C15.2 12.9 15.2 12.9 15.3 12.8L18.4 10.4C18.5 10.3 18.6 10.3 18.8 10.3C18.9 10.3 19.1 10.3 19.2 10.4L26.5 16C26.7 16.2 26.7 16.3 26.4 16.3H11C10.8 16.3 10.7 16.2 10.9 16.1ZM26.5 26.3C26.5 26.6 26.3 26.8 26 26.8H20.6C20.3 26.8 20.1 26.6 20.1 26.3V22.3C20.1 22 20.1 21.7 20.1 21.6C20.1 21.5 20.1 21.3 20.1 21.2C20.1 21.1 19.9 21 19.6 21H17.1C16.8 21 16.6 21.1 16.6 21.2C16.6 21.3 16.6 21.5 16.6 21.6C16.6 21.7 16.6 22.1 16.6 22.3V26.3C16.6 26.6 16.4 26.8 16.1 26.8H11C10.7 26.8 10.5 26.6 10.5 26.3V17.6C10.5 17.3 10.7 17.1 11 17.1H26.1C26.4 17.1 26.6 17.3 26.6 17.6V26.3H26.5Z" fill="#FF6400"/>
<path d="M24.4002 19.6H23.7002C23.4002 19.6 23.2002 19.8 23.2002 20.1V21C23.2002 21.3 23.4002 21.5 23.7002 21.5H24.4002C24.7002 21.5 24.9002 21.3 24.9002 21V20C24.8002 19.8 24.6002 19.6 24.4002 19.6Z" fill="#FF6400"/>
</g>
<defs>
<clipPath id="clip0_98_2840">
<rect width="37.1" height="37.1" fill="white"/>
</clipPath>
</defs>
</svg>
