<svg width="119" height="35" viewBox="0 0 119 35" fill="none" xmlns="http://www.w3.org/2000/svg">
<path d="M5.74896 7.9001C5.74896 6.9001 5.64868 6.26676 5.44812 5.93343C5.24756 5.6001 4.91329 5.4001 4.44531 5.33343V5.13343H9.22537V5.33343C8.79082 5.36676 8.45655 5.56676 8.25599 5.86676C8.05543 6.16676 7.92172 6.8001 7.92172 7.76676V10.3334L9.62649 8.86676C10.529 8.06676 11.1976 7.43343 11.5653 7.0001C12.0332 6.46676 12.2672 6.06676 12.2672 5.8001C12.2672 5.6001 12.2338 5.5001 12.1335 5.43343C12.0332 5.36676 11.8995 5.33343 11.7324 5.3001V5.1001H16.5459V5.33343C15.8773 5.33343 15.2088 5.56676 14.5403 6.0001C14.3731 6.1001 13.8049 6.6001 12.8355 7.4001L11.3647 8.7001C12.3341 9.66676 13.2032 10.7668 13.9386 12.0001C14.6405 13.1334 15.2422 14.4334 15.7771 15.8334L16.1448 16.8001C16.4122 17.5001 16.5793 17.9001 16.6796 18.0334C16.947 18.5001 17.2813 18.7334 17.6824 18.8001V19.0001H13.3035V18.8001C13.7714 18.7334 14.0054 18.4668 14.0054 17.9668C14.0054 17.4334 13.8383 16.7334 13.4706 15.8334C13.2032 15.2001 12.9023 14.5001 12.5346 13.8334C12.1669 13.1334 11.7658 12.5001 11.3313 11.9001C10.8967 11.3001 10.4287 10.6668 9.86048 10.0334L7.92172 11.6668V16.2668C7.92172 17.1001 7.98857 17.6334 8.08885 17.9668C8.28941 18.5001 8.65711 18.8001 9.22537 18.8668V19.0668H4.44531V18.8668C5.01357 18.7668 5.38127 18.4668 5.5484 18.0001C5.68211 17.7001 5.71554 17.1668 5.71554 16.4334V7.9001H5.74896Z" fill="#FF6400"/>
<path d="M24.2675 11.1334C24.3678 10.8334 24.4681 10.5334 24.5349 10.2334C24.6352 9.93342 24.6687 9.70008 24.6687 9.50008C24.6687 9.30008 24.6018 9.13342 24.5015 9.03341C24.4012 8.93341 24.2007 8.83341 23.9333 8.83341V8.66675H26.9751V8.86675C26.574 8.93341 26.2732 9.16675 26.0057 9.56675C25.9055 9.76675 25.7383 10.1667 25.5378 10.7667L22.4625 20.1668C21.9945 21.6001 21.4931 22.5334 20.8914 23.0001C20.39 23.4001 19.7883 23.6001 19.0195 23.6001C18.6518 23.6001 18.3175 23.5334 17.9833 23.4001C17.649 23.2668 17.3481 23.0668 17.0473 22.8334L18.1838 19.9668L18.351 20.0668C18.3175 20.2334 18.2841 20.4001 18.2841 20.5668C18.2841 21.0001 18.3844 21.3668 18.6184 21.7001C18.8189 22.0001 19.1198 22.1668 19.4875 22.1668C20.0557 22.1668 20.5237 21.8668 20.858 21.2668C21.1254 20.7668 21.2925 20.1668 21.2925 19.4668C21.2925 19.0001 21.1922 18.4668 20.9583 17.8334C20.8914 17.6001 20.6574 17.0668 20.3231 16.2334L17.9833 10.6001C17.7493 10.0001 17.5821 9.63341 17.4484 9.43341C17.181 9.03341 16.8802 8.83341 16.5459 8.83341V8.66675H20.5571V8.86675C20.3231 8.90008 20.156 8.96675 20.0557 9.06675C19.9555 9.16675 19.922 9.33341 19.922 9.50008C19.922 9.66675 19.9555 9.83342 20.0557 10.0667C20.156 10.3001 20.1894 10.4667 20.2563 10.6001L22.4959 16.4334L24.2675 11.1334Z" fill="#FF6400"/>
<path d="M35.9672 17.4001C36.1678 17.7001 36.3683 18.0001 36.5689 18.3001C36.8363 18.6334 37.1371 18.8334 37.438 18.8667V19.0667H33.3265V18.8667C33.7276 18.8001 33.9282 18.6334 33.9282 18.3667C33.9282 18.1667 33.8279 17.8667 33.5939 17.5001C33.3933 17.2001 33.2596 16.9667 33.1593 16.8334L31.6551 14.4667L30.2512 16.3334C29.4489 17.4001 29.0478 18.1001 29.0478 18.4001C29.0478 18.6667 29.2484 18.8001 29.6495 18.8667V19.0667H26.5742V18.8667C26.8082 18.8001 27.0422 18.7001 27.2093 18.5667C27.4099 18.4001 27.7107 18.0667 28.1119 17.5001L31.0869 13.6334L29.4155 11.1001C28.7804 10.1334 28.4127 9.56675 28.279 9.43341C27.9447 9.06675 27.6439 8.90008 27.3765 8.90008V8.66675H31.6551V8.86675C31.2206 8.90008 30.9866 9.10008 30.9866 9.40008C30.9866 9.56675 31.0534 9.80008 31.1871 10.0667C31.2874 10.2667 31.4211 10.5001 31.6217 10.7667L32.3571 11.9334L33.2596 10.7001C33.5605 10.3001 33.7276 10.0334 33.761 9.93341C33.9282 9.66675 33.995 9.43341 33.995 9.23341C33.995 8.96675 33.7944 8.83341 33.3933 8.83341V8.66675H36.736V8.86675C36.268 8.90008 35.8001 9.16675 35.2987 9.70008C35.165 9.83341 34.7973 10.3001 34.1956 11.1001L32.8585 12.8001L35.9672 17.4001Z" fill="#FF6400"/>
<path d="M45.9615 13.0001H41.2483V16.4334C41.2483 17.4334 41.3486 18.0667 41.5157 18.3667C41.7162 18.6667 42.0171 18.8334 42.4182 18.8334V19.0334H38.0059V18.8334C38.5407 18.8334 38.875 18.5667 39.0421 18.0667C39.1424 17.7334 39.2092 17.2001 39.2092 16.4334V11.2334C39.2092 10.2667 39.1089 9.60008 38.9418 9.30008C38.7413 9.00008 38.4404 8.83341 38.0393 8.83341V8.66675H42.4516V8.86675C41.9168 8.86675 41.5825 9.13341 41.4154 9.63341C41.3151 9.96675 41.2483 10.5001 41.2483 11.2667V12.1001H45.9615V11.2667C45.9615 10.3001 45.8612 9.63341 45.6941 9.33341C45.4935 9.03341 45.1927 8.86675 44.7915 8.86675V8.66675H49.2039V8.86675C48.6691 8.86675 48.3348 9.13341 48.1677 9.63341C48.0674 9.96675 48.0005 10.5001 48.0005 11.2667V16.4667C48.0005 17.4334 48.1008 18.1001 48.2679 18.4001C48.4685 18.7001 48.7693 18.8667 49.1705 18.8667V19.0667H44.7581V18.8667C45.2929 18.8667 45.6272 18.6001 45.7943 18.1001C45.8946 17.7667 45.9615 17.2334 45.9615 16.4667V13.0001Z" fill="#FF6400"/>
<path d="M58.1295 11.2001L53.4162 15.5334V16.4667C53.4162 17.4334 53.5165 18.1001 53.6837 18.4001C53.8842 18.7001 54.1851 18.8667 54.5862 18.8667V19.0667H50.1738V18.8667C50.7087 18.8334 51.0429 18.5667 51.2101 18.0334C51.3103 17.7334 51.3772 17.2001 51.3772 16.4667V11.2334C51.3772 10.4667 51.3438 9.96675 51.2435 9.66675C51.0764 9.13341 50.7087 8.86675 50.1738 8.83341V8.66675H54.5862V8.86675C54.0514 8.86675 53.7171 9.13341 53.55 9.63341C53.4497 9.96675 53.3828 10.5001 53.3828 11.2667V14.3334L58.096 10.0001C58.0626 9.76675 58.0292 9.60008 57.9623 9.46675C57.7618 9.10008 57.3941 8.86675 56.8927 8.83341V8.66675H61.305V8.86675C60.7702 8.86675 60.4359 9.13341 60.2688 9.63341C60.1685 9.96675 60.1016 10.5001 60.1016 11.2667V16.4667C60.1016 17.4334 60.2019 18.1001 60.3691 18.4001C60.5696 18.7001 60.8705 18.8667 61.2716 18.8667V19.0667H56.8592V18.8667C57.3941 18.8334 57.7283 18.5667 57.8955 18.0334C57.9957 17.7334 58.0626 17.2001 58.0626 16.4667V11.2001H58.1295Z" fill="#FF6400"/>
<path d="M74.107 19.2334C74.0068 19.2001 73.8731 19.2001 73.7059 19.2001H73.4385L71.0318 19.3334C69.8618 19.3334 68.8256 19.2001 67.9565 18.9334C66.9203 18.6334 66.0177 18.1334 65.2155 17.4334C64.3798 16.7001 63.7113 15.8001 63.2767 14.7667C62.8422 13.7334 62.6416 12.6334 62.6416 11.4334C62.6416 10.4667 62.8087 9.56673 63.143 8.70006C63.4773 7.83339 63.9787 7.13339 64.6138 6.53339C65.2823 5.96672 66.0177 5.53339 66.8534 5.30006C67.6891 5.03339 68.5916 4.93339 69.561 4.93339L71.7672 5.13339L72.4023 5.20006C72.6028 5.20006 72.77 5.16672 72.8702 5.10006C73.004 5.03339 73.1042 4.93339 73.1711 4.76672L74.0736 8.73339L73.9065 8.80006C73.5388 7.93339 72.9705 7.26672 72.1683 6.76672C71.366 6.30006 70.4969 6.03339 69.5276 6.03339C68.8256 6.03339 68.2239 6.13339 67.6891 6.33339C67.1542 6.53339 66.6863 6.90006 66.2851 7.43339C65.8506 7.96672 65.5497 8.53339 65.3158 9.20006C65.0818 9.86673 64.9815 10.5667 64.9815 11.2667C64.9815 13.1667 65.5163 14.7667 66.6194 16.1001C67.7559 17.5001 69.2267 18.2001 70.9983 18.2001C72.0011 18.2001 72.8702 17.9001 73.6056 17.3334C74.341 16.7667 74.9427 15.9667 75.3773 14.9334L75.5778 15.0334L74.107 19.2334Z" fill="#FF6400"/>
<path d="M84.0679 11.2001L79.3547 15.5334V16.4667C79.3547 17.4334 79.455 18.1001 79.6221 18.4001C79.8227 18.7001 80.1235 18.8667 80.5247 18.8667V19.0667H76.1123V18.8667C76.6471 18.8334 76.9814 18.5667 77.1485 18.0334C77.2488 17.7334 77.3157 17.2001 77.3157 16.4667V11.2334C77.3157 10.4667 77.2822 9.96675 77.182 9.66675C77.0148 9.13341 76.6471 8.86675 76.1123 8.83341V8.66675H80.5581V8.86675C80.0233 8.86675 79.689 9.13341 79.5219 9.63341C79.4216 9.96675 79.3547 10.5001 79.3547 11.2667V14.3334L84.0679 10.0001C84.0345 9.76675 84.0011 9.60008 83.9342 9.46675C83.7337 9.10008 83.366 8.86675 82.8646 8.83341V8.66675H87.2769V8.86675C86.7421 8.86675 86.4078 9.13341 86.2407 9.63341C86.1404 9.96675 86.0736 10.5001 86.0736 11.2667V16.4667C86.0736 17.4334 86.1738 18.1001 86.341 18.4001C86.5415 18.7001 86.8424 18.8667 87.2435 18.8667V19.0667H82.8311V18.8667C83.366 18.8334 83.7002 18.5667 83.8674 18.0334C83.9676 17.7334 84.0345 17.2001 84.0345 16.4667V11.2001H84.0679Z" fill="#FF6400"/>
<path d="M93.695 16.4667C93.695 17.2333 93.7618 17.8 93.8621 18.0667C94.0626 18.6 94.4304 18.8333 94.9986 18.8333V19.0333H90.3857V18.8333C90.9539 18.8333 91.3216 18.5667 91.4888 18.0333C91.6225 17.7 91.6559 17.1667 91.6559 16.4333V9.66668C90.486 9.66668 89.6169 9.90002 89.0152 10.3667C88.5138 10.7667 88.0458 11.5334 87.6447 12.6333L87.4775 12.5667L88.4469 8.43335C88.5138 8.53335 88.6141 8.63335 88.7478 8.66668C88.8815 8.70002 89.0486 8.73335 89.2492 8.73335H89.6169H95.7006H96.0683C96.2688 8.73335 96.436 8.70002 96.5697 8.66668C96.7034 8.63335 96.8037 8.56668 96.8705 8.43335L97.8399 12.5667L97.6728 12.6333C97.2716 11.5667 96.8037 10.8 96.3023 10.4C95.7006 9.90002 94.8315 9.66668 93.6615 9.66668V16.4667H93.695Z" fill="#FF6400"/>
<path d="M105.997 11.2001L101.283 15.5334V16.4667C101.283 17.4334 101.384 18.1001 101.551 18.4001C101.751 18.7001 102.052 18.8667 102.453 18.8667V19.0667H98.041V18.8667C98.5758 18.8334 98.9101 18.5667 99.0773 18.0334C99.1775 17.7334 99.2444 17.2001 99.2444 16.4667V11.2334C99.2444 10.4667 99.211 9.96675 99.1107 9.66675C98.9435 9.13341 98.5758 8.86675 98.041 8.83341V8.66675H102.453V8.86675C101.919 8.86675 101.584 9.13341 101.417 9.63341C101.317 9.96675 101.25 10.5001 101.25 11.2667V14.3334L105.963 10.0001C105.93 9.76675 105.896 9.60008 105.83 9.46675C105.629 9.10008 105.261 8.86675 104.76 8.83341V8.66675H109.172V8.86675C108.637 8.86675 108.303 9.13341 108.136 9.63341C108.036 9.96675 107.969 10.5001 107.969 11.2667V16.4667C107.969 17.4334 108.069 18.1001 108.236 18.4001C108.437 18.7001 108.738 18.8667 109.139 18.8667V19.0667H104.726V18.8667C105.261 18.8334 105.596 18.5667 105.763 18.0334C105.863 17.7334 105.93 17.2001 105.93 16.4667V11.2001H105.997Z" fill="#FF6400"/>
<path d="M112.715 8.59999C111.88 8.59999 111.144 7.86666 111.144 6.96666C111.144 6.03332 111.88 5.33333 112.715 5.33333C113.551 5.33333 114.253 6.06666 114.253 6.96666C114.286 7.86666 113.551 8.59999 112.715 8.59999ZM112.715 8.89999C113.752 8.89999 114.554 8.03332 114.554 6.96666C114.554 5.86666 113.752 5.03333 112.715 5.03333C111.679 5.03333 110.877 5.89999 110.877 6.96666C110.877 8.03332 111.679 8.89999 112.715 8.89999ZM112.983 7.03332C113.351 7.03332 113.618 6.86666 113.618 6.46666C113.618 5.99999 113.284 5.89999 112.916 5.89999H112.047V7.99999H112.314V7.03332H112.649L113.25 7.99999H113.585L112.983 7.03332ZM112.314 6.73333V6.19999H112.849C113.05 6.19999 113.317 6.23332 113.317 6.46666C113.317 6.79999 112.883 6.76666 112.649 6.76666H112.314V6.73333Z" fill="#FF6400"/>
<path d="M7.98932 29.0667C7.95589 29.0334 7.92247 29 7.88904 29C7.85561 29 7.82219 28.9667 7.75533 28.9667H7.68848L6.88623 29.0334C6.21769 29.0334 5.64944 28.8667 5.21489 28.5C4.71348 28.1 4.47949 27.5667 4.47949 26.8667C4.47949 26.2334 4.68005 25.7667 5.08118 25.4C5.44887 25.0667 5.95028 24.9 6.55196 24.9C6.68567 24.9 6.81938 24.9 6.95309 24.9334C7.08679 24.9334 7.2205 24.9667 7.35421 25C7.38764 25 7.42106 25 7.45449 25.0334C7.48792 25.0334 7.52134 25.0334 7.55477 25.0334C7.68848 25.0334 7.78876 24.9667 7.82219 24.8667L8.15646 26.5667L8.02275 26.6C7.92247 26.2667 7.75533 26 7.55477 25.8C7.32078 25.5667 7.05337 25.4334 6.75253 25.4334C6.41826 25.4334 6.15084 25.5667 5.95028 25.8667C5.78314 26.1334 5.68286 26.4334 5.68286 26.8C5.68286 27 5.71629 27.2334 5.74972 27.4334C5.81657 27.6334 5.88342 27.8334 6.01713 28C6.15084 28.1667 6.28455 28.3 6.48511 28.4334C6.68567 28.5334 6.88623 28.6 7.08679 28.6C7.35421 28.6 7.55477 28.5334 7.75533 28.4C7.9559 28.2667 8.0896 28.0667 8.18988 27.8L8.32359 27.8334L7.98932 29.0667Z" fill="#FF6400"/>
<path d="M10.5292 28.1667C10.5292 28.3667 10.5292 28.4667 10.5292 28.5333C10.5626 28.7 10.6295 28.8 10.7966 28.8V28.9333H9.15869V28.8C9.25897 28.8 9.32583 28.7667 9.39268 28.7C9.45954 28.6333 9.45954 28.4667 9.45954 28.2V26.4C9.22555 26.4 9.02498 26.4667 8.85785 26.6333C8.69072 26.7667 8.55701 27 8.49015 27.2667L8.35645 27.2333L8.62386 25.9333C8.65729 25.9667 8.69072 26 8.72414 26C8.75757 26 8.82442 26.0333 8.9247 26.0333H9.02498H9.09184H10.7966H10.9637C11.0306 26.0333 11.1309 26.0333 11.1977 26C11.2646 26 11.298 25.9667 11.3314 25.9333L11.5989 27.2333L11.4652 27.2667C11.3649 27 11.2312 26.7667 11.0975 26.6333C10.9303 26.4667 10.7632 26.4 10.5292 26.4V28.1667Z" fill="#FF6400"/>
<path d="M11.9327 26.6333C11.9327 26.3 11.8324 26.1333 11.6318 26.1333V26H13.2698V26.1333C13.0692 26.1333 13.0023 26.3 13.0023 26.6333V27.3667L13.7712 26.6333C13.7712 26.4667 13.7377 26.3333 13.7043 26.2667C13.6709 26.2 13.604 26.1667 13.5037 26.1667V26H15.1417V26.1333C14.9411 26.1333 14.8408 26.3 14.8408 26.6333V28.3C14.8408 28.6333 14.9411 28.7667 15.1417 28.7667V28.9H13.5037V28.7667C13.604 28.7667 13.6709 28.7333 13.7043 28.6667C13.7377 28.6 13.7712 28.4667 13.7712 28.3V27.1333L13.0023 27.8667V28.3C13.0023 28.6333 13.1026 28.7667 13.2698 28.7667V28.9H11.6318V28.7667C11.8324 28.7667 11.9327 28.6 11.9327 28.3V26.6333Z" fill="#FF6400"/>
<path d="M16.4453 26.5333C16.2782 26.7 16.1111 26.9667 16.0108 27.3C15.9105 27.6333 15.8436 27.9667 15.8436 28.3333C15.8436 28.4333 15.8771 28.5333 15.9774 28.6333C16.0776 28.7333 16.2448 28.8 16.4119 28.8V28.9333H15.2754V28.8667C15.2754 28.5 15.3088 28.1667 15.3757 27.8667C15.5094 27.3 15.7434 26.8333 16.1111 26.4C16.1445 26.3667 16.1445 26.3333 16.1445 26.3C16.1445 26.2667 16.1445 26.2667 16.1445 26.2333C16.1445 26.1667 16.1111 26.1333 16.0108 26.1333H15.9439V26H18.451V26.1333C18.3172 26.1333 18.2504 26.2 18.1835 26.3333C18.1501 26.4333 18.1501 26.5667 18.1501 26.7667V28.1667C18.1501 28.3667 18.1501 28.5333 18.1835 28.6C18.217 28.7333 18.3172 28.8 18.451 28.8V28.9333H16.813V28.8C16.9133 28.8 16.9802 28.7667 17.0136 28.7C17.047 28.6333 17.0804 28.4667 17.0804 28.2V26.8C17.0804 26.6333 17.0804 26.5 17.047 26.4333C17.0136 26.3667 16.9802 26.3333 16.8799 26.3333C16.7796 26.3333 16.6793 26.3667 16.6125 26.4C16.6125 26.4 16.5122 26.4667 16.4453 26.5333Z" fill="#FF6400"/>
<path d="M18.752 28.9333V28.8C18.8522 28.8 18.9191 28.7667 18.9859 28.6667C19.0528 28.6 19.0528 28.4333 19.0528 28.1667V26.7667C19.0528 26.5667 19.0528 26.4333 19.0194 26.3333C18.9859 26.2 18.8857 26.1333 18.752 26.1333V26H20.4567V26.1333C20.2896 26.1333 20.2227 26.2 20.1559 26.3333C20.1225 26.4 20.1225 26.5667 20.1225 26.7667V26.9667C20.6573 26.9667 21.0584 27.0333 21.3927 27.2C21.7938 27.4 21.9609 27.6667 21.9609 28.0667C21.9609 28.3333 21.8272 28.5667 21.5264 28.7333C21.259 28.9 20.8579 28.9667 20.3564 28.9667H18.752V28.9333ZM20.3564 28.6C20.4902 28.6 20.6239 28.5333 20.7241 28.4333C20.8244 28.3333 20.8579 28.2 20.8579 28.0333C20.8579 27.8333 20.791 27.6667 20.6573 27.5333C20.5236 27.3667 20.323 27.3 20.089 27.3V28.2C20.089 28.3667 20.089 28.4667 20.1559 28.5333C20.1893 28.5667 20.2562 28.6 20.3564 28.6Z" fill="#FF6400"/>
<path d="M26.942 26.5667C26.942 26.7 26.8752 26.8 26.7415 26.9333C26.6412 27.0333 26.5075 27.1 26.3403 27.1667C26.6412 27.2 26.8752 27.3 27.0423 27.4333C27.2094 27.5667 27.3097 27.7667 27.3097 27.9667C27.3097 28.3 27.1426 28.5333 26.8417 28.7C26.5743 28.8667 26.2066 28.9333 25.7721 28.9333H23.9336V28.8C24.0673 28.8 24.1342 28.7333 24.201 28.6C24.2344 28.5 24.2344 28.3667 24.2344 28.1667V26.7667C24.2344 26.5667 24.2344 26.4333 24.201 26.3333C24.1676 26.2 24.0673 26.1333 23.9336 26.1333V26H25.6718C26.0729 26 26.3403 26.0333 26.474 26.0667C26.8083 26.1333 26.942 26.3 26.942 26.5667ZM25.8389 26.7C25.8389 26.6 25.8055 26.5 25.7721 26.4333C25.7387 26.3667 25.6718 26.3333 25.5715 26.3333C25.4712 26.3333 25.4044 26.3667 25.371 26.4C25.3375 26.4667 25.3041 26.5667 25.3041 26.7667V27.1667L25.5047 27.1C25.6049 27.0667 25.6718 27.0333 25.7387 26.9333C25.8055 26.8667 25.8389 26.8 25.8389 26.7ZM25.3041 27.5333V28.1333C25.3041 28.3 25.3375 28.4333 25.371 28.4667C25.4044 28.5333 25.5047 28.5667 25.6384 28.5667C25.8055 28.5667 25.9392 28.5 26.0395 28.4C26.1398 28.3 26.1732 28.1667 26.1732 27.9667C26.1732 27.8 26.1398 27.6667 26.0729 27.5667C26.0061 27.4667 25.9058 27.4 25.8055 27.3333L25.3041 27.5333Z" fill="#FF6400"/>
<path d="M31.1538 28.9333V28.8C31.2875 28.8 31.3544 28.7333 31.3878 28.6C31.4212 28.5 31.4212 28.3667 31.4212 28.1333V27.6L31.2541 27.4333C31.1538 27.5667 31.0536 27.7333 30.9533 28C30.853 28.2333 30.7861 28.4333 30.7861 28.5667C30.7861 28.7333 30.853 28.8 31.0201 28.8V28.9333H29.1816V28.8C29.2819 28.8 29.4156 28.7333 29.5159 28.5667C29.5159 28.5667 29.5828 28.4333 29.7165 28.1667L29.917 27.7333C29.9839 27.5667 30.0842 27.4 30.2179 27.2333C30.3182 27.1 30.4184 26.9333 30.5521 26.7667L30.4184 26.6C30.2513 26.4667 30.0842 26.3667 29.917 26.2667C29.7165 26.1667 29.5493 26.1333 29.3488 26.1333V26H30.9533V26.1333C30.8864 26.1333 30.853 26.1333 30.8196 26.1667C30.7527 26.2 30.7527 26.2333 30.7527 26.3C30.7527 26.3333 30.7861 26.4333 30.8864 26.5667C30.9533 26.6333 31.0201 26.7 31.087 26.8L31.4212 27.2V26.6333C31.4212 26.4667 31.4212 26.3667 31.3878 26.3C31.3544 26.2 31.2875 26.1333 31.1538 26.1333V26H32.7583V26.1333C32.658 26.1333 32.5578 26.2 32.5243 26.3C32.4909 26.3667 32.4909 26.4667 32.4909 26.6333V27.2L32.8252 26.8C32.9255 26.7 33.0257 26.5667 33.0592 26.5C33.126 26.4 33.1595 26.3667 33.1595 26.3333C33.1595 26.2667 33.126 26.2333 33.0926 26.2C33.0592 26.1667 32.9923 26.1667 32.9589 26.1667V26H34.5634V26.1333C34.3628 26.1333 34.1957 26.1667 33.9951 26.2667C33.7946 26.3667 33.6274 26.4667 33.4937 26.6L33.3934 26.7C33.5272 26.9 33.6609 27.0667 33.7277 27.1667C33.828 27.3333 33.9283 27.5 34.0286 27.7L34.2291 28.1333C34.3294 28.3667 34.3963 28.5 34.4297 28.5333C34.53 28.7 34.6302 28.7667 34.7639 28.7667V28.9H32.9589V28.7667C33.0926 28.7667 33.1595 28.7 33.1595 28.5333C33.1595 28.4 33.0926 28.2 32.9923 27.9667C32.892 27.7333 32.7918 27.5333 32.658 27.4L32.4909 27.5667V28.1C32.4909 28.4 32.5243 28.5667 32.5578 28.6333C32.5912 28.7 32.658 28.7333 32.7583 28.7333V28.8667H31.1538V28.9333Z" fill="#FF6400"/>
<path d="M35.0977 26.6333C35.0977 26.3 34.9974 26.1333 34.7969 26.1333V26H36.4348V26.1333C36.2342 26.1333 36.1674 26.3 36.1674 26.6333V27.3667L36.9362 26.6333C36.9362 26.4667 36.9028 26.3333 36.8694 26.2667C36.8359 26.2 36.7691 26.1667 36.6688 26.1667V26H38.3067V26.1333C38.1061 26.1333 38.0059 26.3 38.0059 26.6333V28.3C38.0059 28.6333 38.1061 28.7667 38.3067 28.7667V28.9H36.6688V28.7667C36.7691 28.7667 36.8359 28.7333 36.8694 28.6667C36.9028 28.6 36.9362 28.4667 36.9362 28.3V27.1333L36.1674 27.8667V28.3C36.1674 28.6333 36.2677 28.7667 36.4348 28.7667V28.9H34.7969V28.7667C34.9974 28.7667 35.0977 28.6 35.0977 28.3V26.6333Z" fill="#FF6400"/>
<path d="M40.5463 27.2334C40.8138 27.3 41.0477 27.4001 41.1814 27.5001C41.3486 27.6334 41.4489 27.8334 41.4489 28.0334C41.4489 28.3334 41.3152 28.5667 41.0143 28.7334C40.7469 28.9001 40.3123 29.0001 39.7775 29.0001C39.7107 29.0001 39.5769 29.0001 39.4098 28.9667C39.2427 28.9334 39.109 28.9334 39.0421 28.9334C38.9084 28.9334 38.8081 28.9334 38.7078 28.9667L38.641 29.0001L38.4404 28.0667L38.5741 28.0334L38.6076 28.0667C38.6744 28.2001 38.8416 28.3334 39.0755 28.4334C39.3095 28.5334 39.5101 28.6001 39.7441 28.6001C39.9446 28.6001 40.0784 28.5334 40.2121 28.4334C40.3123 28.3334 40.3792 28.2001 40.3792 28.0001C40.3792 27.8001 40.3123 27.6667 40.1786 27.6001C40.0449 27.5001 39.7775 27.4334 39.4432 27.4334H39.3764V27.1001H39.4432C39.6772 27.1001 39.8778 27.0667 39.9446 27.0001C40.0449 26.9334 40.0784 26.8001 40.0784 26.6334C40.0784 26.5334 40.0449 26.4334 39.9781 26.3667C39.9112 26.3 39.8109 26.2667 39.7107 26.2667C39.5101 26.2667 39.343 26.3334 39.1758 26.4334C39.0421 26.5334 38.875 26.6667 38.7747 26.8667L38.7413 26.9L38.6076 26.8667L39.0087 25.8L39.0755 25.9C39.109 25.9334 39.1424 25.9334 39.2093 25.9334C39.3095 25.9334 39.4098 25.9 39.5101 25.9C39.6104 25.9 39.7107 25.9 39.8444 25.9C40.3458 25.9 40.68 25.9667 40.914 26.0667C41.148 26.1667 41.2483 26.3667 41.2483 26.5667C41.2483 26.7 41.1814 26.8334 41.0477 26.9667C40.8472 27.1001 40.7135 27.2 40.5463 27.2334Z" fill="#FF6400"/>
<path d="M41.8839 26.6333C41.8839 26.3 41.7836 26.1333 41.583 26.1333V26H43.2209V26.1333C43.1206 26.1333 43.0538 26.1667 43.0204 26.2333C42.9869 26.3 42.9535 26.4333 42.9535 26.6V26.9H43.7223V26.6C43.7223 26.4333 43.6889 26.3 43.6555 26.2333C43.622 26.1667 43.5552 26.1333 43.4549 26.1333V26H45.0928V26.1333C44.8923 26.1333 44.792 26.3 44.792 26.6333V28.3C44.792 28.6333 44.8923 28.7667 45.0928 28.7667V28.9H43.4549V28.7667C43.5552 28.7667 43.622 28.7333 43.6555 28.6667C43.6889 28.6 43.7223 28.4667 43.7223 28.3V27.3H42.9535V28.3C42.9535 28.4667 42.9869 28.6 43.0204 28.6667C43.0538 28.7333 43.1206 28.7667 43.2209 28.7667V28.9H41.583V28.7667C41.7836 28.7667 41.8839 28.6 41.8839 28.3V26.6333Z" fill="#FF6400"/>
<path d="M45.5938 26.6333C45.5938 26.3 45.4935 26.1333 45.293 26.1333V26H46.9309V26.1333C46.7303 26.1333 46.6635 26.3 46.6635 26.6333V27.3667L47.4323 26.6333C47.4323 26.4667 47.3989 26.3333 47.3654 26.2667C47.332 26.2 47.2652 26.1667 47.1649 26.1667V26H48.8028V26.1333C48.6022 26.1333 48.502 26.3 48.502 26.6333V28.3C48.502 28.6333 48.6022 28.7667 48.8028 28.7667V28.9H47.1649V28.7667C47.2652 28.7667 47.332 28.7333 47.3654 28.6667C47.3989 28.6 47.4323 28.4667 47.4323 28.3V27.1333L46.6635 27.8667V28.3C46.6635 28.6333 46.7638 28.7667 46.9309 28.7667V28.9H45.293V28.7667C45.4935 28.7667 45.5938 28.6 45.5938 28.3V26.6333Z" fill="#FF6400"/>
<path d="M52.1458 28C52.1123 27.9333 52.0789 27.9 52.0121 27.8667C51.9452 27.8333 51.8783 27.8333 51.7781 27.8333H51.6444H51.4772C51.3769 27.8333 51.2767 27.8333 51.2098 27.8667C51.1429 27.9 51.0761 27.9333 51.0427 28L50.9424 27.9667L51.3435 26.9667C51.3769 27.0333 51.3769 27.0667 51.4438 27.0667C51.4772 27.1 51.5441 27.1 51.5775 27.1H51.6778H52.0121C52.1458 27.1 52.246 27.1 52.2795 27.0667C52.3129 27.0333 52.3797 27 52.4132 26.9667L52.5135 27L52.1458 28Z" fill="#FF6400"/>
<path d="M56.1572 27.1667L56.5917 26.7333C56.7923 26.5 56.926 26.3667 56.926 26.2667C56.926 26.2 56.8926 26.1667 56.8591 26.1667C56.7923 26.1333 56.7589 26.1333 56.692 26.1333V26H58.3634V26.1333C58.1628 26.1333 57.9957 26.1667 57.7951 26.2667C57.5945 26.3667 57.4274 26.4667 57.2937 26.6L57.1934 26.7C57.3271 26.9 57.4608 27.0667 57.5277 27.1667C57.628 27.3333 57.7282 27.5 57.8285 27.7L58.0291 28.1333C58.1628 28.4 58.2296 28.5333 58.2296 28.5333C58.3299 28.7 58.4302 28.7667 58.5639 28.7667V28.9H56.7254V28.7667C56.7923 28.7667 56.8591 28.7333 56.8926 28.7C56.926 28.6667 56.9594 28.6 56.9594 28.5333C56.9594 28.4 56.8926 28.2 56.7589 27.9333C56.6586 27.7333 56.5249 27.5667 56.3912 27.4L56.224 27.5667V28.1C56.224 28.3333 56.224 28.5 56.2575 28.5667C56.2909 28.7 56.3577 28.7667 56.4914 28.7667V28.9H54.8535V28.7667C55.0541 28.7667 55.1544 28.6 55.1544 28.2667V26.6C55.1544 26.2667 55.0541 26.1 54.8535 26.1V26H56.4914V26.1333C56.3912 26.1333 56.2909 26.2 56.2575 26.3C56.224 26.3667 56.224 26.4667 56.224 26.6333V27.1667H56.1572Z" fill="#FF6400"/>
<path d="M59.0319 28.7C58.8648 28.5667 58.7311 28.4 58.6308 28.2C58.5305 28 58.4971 27.7667 58.4971 27.5334C58.4971 27.0334 58.6642 26.6334 59.0319 26.3334C59.3662 26.0667 59.7673 25.9 60.2353 25.9C60.7032 25.9 61.1044 26.0334 61.4052 26.3C61.7395 26.5667 61.9066 26.9667 61.9066 27.4667C61.9066 27.9667 61.7395 28.3334 61.4052 28.6334C61.1044 28.9 60.7032 29.0334 60.2353 29.0334C60.0347 29.0334 59.8007 29 59.6002 28.9667C59.3662 28.9 59.199 28.8 59.0319 28.7ZM60.6364 28.2334C60.6698 28.1334 60.7032 28.0334 60.7032 27.9334C60.7367 27.8 60.7367 27.7 60.7367 27.5667C60.7367 27.4 60.7367 27.2667 60.7032 27.1334C60.6698 27 60.6364 26.8667 60.603 26.7667C60.5695 26.6667 60.5027 26.5667 60.4358 26.5C60.369 26.4334 60.2687 26.4 60.1684 26.4C59.9679 26.4 59.8341 26.5334 59.7339 26.7667C59.667 26.9334 59.6336 27.1334 59.6336 27.4C59.6336 27.6667 59.667 27.9334 59.7673 28.1334C59.8676 28.4334 60.0347 28.6 60.2687 28.6C60.3355 28.6 60.4358 28.5667 60.5027 28.5C60.5695 28.4 60.603 28.3334 60.6364 28.2334Z" fill="#FF6400"/>
<path d="M62.8762 28.1333C62.8762 28.4 62.9097 28.6 62.9431 28.6667C63.0099 28.7333 63.0768 28.8 63.1771 28.8V28.9333H62.1074V28.8C62.2411 28.7667 62.3414 28.7 62.3748 28.6C62.4083 28.5333 62.4083 28.4 62.4083 28.1667V26.8C62.4083 26.5667 62.4083 26.4333 62.3748 26.3667C62.3414 26.2333 62.2411 26.1667 62.1074 26.1333V26H63.8122V26.1333C63.7453 26.1333 63.6785 26.1667 63.6785 26.2667C63.6785 26.3333 63.7119 26.4333 63.8122 26.5333L64.1465 27.0333L64.4807 26.5333C64.5476 26.4333 64.581 26.3333 64.581 26.2667C64.581 26.2 64.5476 26.1667 64.4807 26.1667V26H65.9849V26.1333C65.8512 26.1667 65.751 26.2333 65.7175 26.3333C65.6841 26.4 65.6841 26.5333 65.6841 26.7333V28.1C65.6841 28.3333 65.6841 28.5 65.7175 28.5667C65.751 28.7 65.8512 28.7667 65.9849 28.7667V28.9H64.347V28.7667C64.4473 28.7667 64.5476 28.7333 64.581 28.6333C64.6144 28.5667 64.6144 28.4667 64.6144 28.3V28.1333V26.9L63.6785 28.2333L62.776 26.9V28.1333H62.8762Z" fill="#FF6400"/>
<path d="M68.1905 25.6C68.1905 25.2667 68.0902 25.1334 67.8897 25.1334V25L69.2602 24.9V25.9334C69.2936 25.9334 69.327 25.9334 69.4273 25.9334C69.5276 25.9334 69.561 25.9334 69.5944 25.9334C70.0624 25.9334 70.4301 26.0667 70.7309 26.3667C70.9984 26.6667 71.1655 27.0667 71.1655 27.6C71.1655 27.8 71.1321 28.0334 71.0318 28.2C70.9649 28.4 70.8312 28.5667 70.6641 28.6667C70.497 28.8 70.3633 28.8667 70.1961 28.9334C70.029 28.9667 69.8618 29 69.6279 29L69.2602 28.9667V29.6C69.2602 29.7667 69.2936 29.8667 69.3604 29.9667C69.4273 30.0667 69.4941 30.1 69.6279 30.1V30.2334H67.8562V30.1C67.9565 30.1 68.0568 30.0667 68.1236 29.9667C68.1905 29.9 68.2239 29.7667 68.2239 29.6V28.9667L67.8228 29C67.6222 29 67.4217 28.9667 67.2545 28.9334C67.0874 28.9 66.9203 28.8 66.7866 28.6667C66.6194 28.5334 66.5191 28.3667 66.4189 28.2C66.3186 28.0334 66.2852 27.8 66.2852 27.6C66.2852 27.0667 66.4189 26.6667 66.7197 26.3667C66.9871 26.0667 67.3882 25.9334 67.8562 25.9334C67.9231 25.9334 67.9899 25.9334 68.0234 25.9334C68.0568 25.9334 68.1236 25.9334 68.1905 25.9667V25.6ZM68.1905 26.3334L68.0902 26.3C67.8897 26.3 67.7225 26.4334 67.5888 26.6667C67.4551 26.9 67.4217 27.2 67.4217 27.5C67.4217 27.8 67.4551 28.0667 67.5554 28.2667C67.6557 28.4667 67.7894 28.5667 67.9565 28.5667C68.0234 28.5667 68.0902 28.5334 68.1236 28.4667C68.1571 28.4 68.1905 28.2667 68.1905 28.1V26.3334ZM69.2602 28.1C69.2602 28.4 69.327 28.5667 69.4607 28.5667C69.6279 28.5667 69.7616 28.4667 69.8618 28.2667C69.9621 28.0667 69.9956 27.8334 69.9956 27.5C69.9956 27.1667 69.9287 26.9 69.8284 26.6667C69.6947 26.4334 69.561 26.3 69.327 26.3L69.2267 26.3334V28.1H69.2602Z" fill="#FF6400"/>
<path d="M71.9342 28.7C71.7671 28.5667 71.6334 28.4 71.5331 28.2C71.4328 28 71.3994 27.7667 71.3994 27.5334C71.3994 27.0334 71.5665 26.6334 71.9342 26.3334C72.2685 26.0667 72.6696 25.9 73.1376 25.9C73.6056 25.9 74.0067 26.0334 74.3076 26.3C74.6418 26.5667 74.809 26.9667 74.809 27.4667C74.809 27.9667 74.6418 28.3334 74.3076 28.6334C74.0067 28.9 73.6056 29.0334 73.1376 29.0334C72.9371 29.0334 72.7031 29 72.5025 28.9667C72.2685 28.9 72.068 28.8 71.9342 28.7ZM73.5387 28.2334C73.5722 28.1334 73.6056 28.0334 73.6056 27.9334C73.639 27.8 73.639 27.7 73.639 27.5667C73.639 27.4 73.639 27.2667 73.6056 27.1334C73.5722 27 73.5387 26.8667 73.5053 26.7667C73.4719 26.6667 73.405 26.5667 73.3382 26.5C73.2713 26.4334 73.171 26.4 73.0708 26.4C72.8702 26.4 72.7365 26.5334 72.6362 26.7667C72.5694 26.9334 72.5359 27.1334 72.5359 27.4C72.5359 27.6667 72.5694 27.9334 72.6696 28.1334C72.7699 28.4334 72.9371 28.6 73.171 28.6C73.2379 28.6 73.3382 28.5667 73.405 28.5C73.4385 28.4 73.4719 28.3334 73.5387 28.2334Z" fill="#FF6400"/>
<path d="M76.7474 26C77.0149 26 77.2154 26.0333 77.416 26.0667C77.6165 26.1 77.7837 26.2 77.9508 26.3333C78.1179 26.4667 78.2517 26.6667 78.3519 26.8667C78.4522 27.0667 78.4856 27.3 78.4856 27.5333C78.4856 28 78.3185 28.3667 77.9842 28.6667C77.8505 28.8 77.65 28.8667 77.416 28.9333C77.2154 28.9667 77.0149 29 76.7809 29C76.714 29 76.6472 29 76.5469 29C76.48 29 76.4132 29 76.3463 28.9667V29.6C76.3463 29.7667 76.3797 29.8667 76.4466 29.9667C76.5135 30.0667 76.5803 30.1 76.714 30.1V30.2333H74.9424V30.1C75.0427 30.1 75.1429 30.0667 75.2098 29.9667C75.2767 29.9 75.3101 29.7667 75.3101 29.6V26.6C75.3101 26.2667 75.2098 26.1333 75.0092 26.1333V26H76.7474ZM76.3797 28.1C76.3797 28.1667 76.3797 28.2333 76.3797 28.3C76.3797 28.3667 76.3797 28.4333 76.4132 28.4667C76.48 28.5333 76.5469 28.5667 76.6472 28.5667C76.8812 28.5667 77.0817 28.4333 77.2154 28.2C77.3157 28 77.3826 27.7667 77.3826 27.5C77.3826 27.2 77.3157 26.9333 77.1486 26.7C76.9814 26.4667 76.7474 26.3667 76.4466 26.3667H76.3797V28.1Z" fill="#FF6400"/>
<path d="M80.6591 28.1667C80.6591 28.3667 80.6591 28.4667 80.6591 28.5333C80.6925 28.7 80.7594 28.8 80.9265 28.8V28.9333H79.2886V28.8C79.3889 28.8 79.4557 28.7667 79.5226 28.7C79.5894 28.6333 79.5894 28.4667 79.5894 28.2V26.4C79.3554 26.4 79.1549 26.4667 78.9877 26.6333C78.8206 26.7667 78.6869 27 78.62 27.2667L78.4863 27.2333L78.7537 25.9333C78.7872 25.9667 78.8206 26 78.854 26C78.8875 26 78.9543 26.0333 79.0212 26.0333H79.088H79.1549H80.8596H81.0268C81.0936 26.0333 81.1939 26.0333 81.2273 26C81.2942 26 81.3276 25.9667 81.3611 25.9333L81.6285 27.2333L81.4948 27.2667C81.3945 27 81.2608 26.7667 81.1271 26.6333C80.9599 26.4667 80.7928 26.4 80.5588 26.4V28.1667H80.6591Z" fill="#FF6400"/>
<path d="M84.001 26.6333C84.001 26.3 83.9008 26.1333 83.7002 26.1333V26H85.3381V26.1333C85.2378 26.1333 85.171 26.1667 85.1376 26.2333C85.1041 26.3 85.0707 26.4333 85.0707 26.6V26.9H85.8395V26.6C85.8395 26.4333 85.8061 26.3 85.7727 26.2333C85.7393 26.1667 85.6724 26.1333 85.5721 26.1333V26H87.21V26.1333C87.0095 26.1333 86.9092 26.3 86.9092 26.6333V28.3C86.9092 28.6333 87.0095 28.7667 87.21 28.7667V28.9H85.5721V28.7667C85.6724 28.7667 85.7393 28.7333 85.7727 28.6667C85.8061 28.6 85.8395 28.4667 85.8395 28.3V27.3H85.0707V28.3C85.0707 28.4667 85.1041 28.6 85.1376 28.6667C85.171 28.7333 85.2378 28.7667 85.3381 28.7667V28.9H83.7002V28.7667C83.9008 28.7667 84.001 28.6 84.001 28.3V26.6333Z" fill="#FF6400"/>
<path d="M89.3497 26.9334V26.8333C89.3497 26.7667 89.3497 26.7 89.3497 26.6667C89.3497 26.6333 89.3162 26.5667 89.2828 26.5333C89.216 26.4667 89.1825 26.4333 89.0823 26.4C89.0154 26.3667 88.9151 26.3667 88.8483 26.3667C88.6143 26.3667 88.4137 26.4333 88.2466 26.5667C88.0794 26.7 87.9457 26.8667 87.8455 27.1H87.7452L87.8455 26.0333C87.8789 26.0667 87.9123 26.1 87.9457 26.1C87.9792 26.1 88.0126 26.1333 88.046 26.1333C88.0794 26.1333 88.1129 26.1333 88.1463 26.1333C88.1797 26.1333 88.2132 26.1333 88.2466 26.1C88.5474 26.0333 88.748 26 88.8817 25.9667C89.0154 25.9333 89.1491 25.9333 89.2828 25.9333C89.45 25.9333 89.6171 25.9333 89.7508 25.9667C89.8845 26 90.0182 26.0667 90.1185 26.1333C90.2188 26.2333 90.3191 26.3667 90.3525 26.5333C90.3859 26.6333 90.3859 26.8 90.3859 27.0333V28.1334V28.2667C90.3859 28.4334 90.3859 28.5334 90.4193 28.6C90.4528 28.7 90.553 28.7667 90.6868 28.8V28.9334H89.5168C89.4834 28.9 89.4165 28.8334 89.3831 28.7667C89.3497 28.7 89.3163 28.6334 89.3163 28.5334C89.216 28.6667 89.0823 28.8 88.8483 28.9C88.6477 28.9667 88.4806 29.0334 88.28 29.0334C88.046 29.0334 87.8455 28.9667 87.7117 28.8334C87.5446 28.7 87.4443 28.5 87.4443 28.2667C87.4443 27.9667 87.5446 27.7334 87.7786 27.5333C87.9457 27.3667 88.2132 27.2334 88.5474 27.1334C88.7814 27.0667 89.0488 27 89.3497 26.9667V26.9334ZM88.8483 27.4667C88.748 27.5334 88.6811 27.6 88.6143 27.7C88.5474 27.8 88.514 27.9 88.514 28C88.514 28.1 88.5474 28.2 88.5809 28.2667C88.6477 28.3334 88.7146 28.3667 88.8148 28.3667C89.0154 28.3667 89.1491 28.2334 89.2494 27.9667C89.3162 27.7667 89.3497 27.5334 89.3497 27.2667C89.2494 27.3 89.1491 27.3 89.0823 27.3334C88.982 27.4 88.9151 27.4334 88.8483 27.4667Z" fill="#FF6400"/>
<path d="M94.0961 27.1667L94.5306 26.7333C94.7312 26.5 94.8649 26.3667 94.8649 26.2667C94.8649 26.2 94.8315 26.1667 94.7981 26.1667C94.7312 26.1333 94.6978 26.1333 94.6309 26.1333V26H96.3023V26.1333C96.1017 26.1333 95.9346 26.1667 95.734 26.2667C95.5335 26.3667 95.3663 26.4667 95.2326 26.6L95.1323 26.7C95.266 26.9 95.3998 27.0667 95.4666 27.1667C95.5669 27.3333 95.6672 27.5 95.7675 27.7L95.968 28.1333C96.1017 28.4 96.1686 28.5333 96.1686 28.5333C96.2689 28.7 96.3691 28.7667 96.5029 28.7667V28.9H94.5975V28.7667C94.6644 28.7667 94.7312 28.7333 94.7646 28.7C94.7981 28.6667 94.8315 28.6 94.8315 28.5333C94.8315 28.4 94.7646 28.2 94.6309 27.9333C94.5307 27.7333 94.3969 27.5667 94.2632 27.4L94.0961 27.5667V28.1C94.0961 28.3333 94.0961 28.5 94.1295 28.5667C94.163 28.7 94.2298 28.7667 94.3635 28.7667V28.9H92.7256V28.7667C92.9261 28.7667 93.0264 28.6 93.0264 28.2667V26.6C93.0264 26.2667 92.9261 26.1 92.7256 26.1V26H94.3635V26.1333C94.2632 26.1333 94.163 26.2 94.1295 26.3C94.0961 26.3667 94.0961 26.4667 94.0961 26.6333V27.1667Z" fill="#FF6400"/>
<path d="M98.7766 26.7333C98.8101 26.6333 98.8101 26.5667 98.8435 26.5333C98.8435 26.4667 98.8769 26.4333 98.8769 26.3667C98.8769 26.3 98.8435 26.2333 98.8101 26.2C98.7766 26.1667 98.7098 26.1333 98.6429 26.1333V26H99.7794V26.1333C99.6457 26.1333 99.512 26.2333 99.4118 26.4C99.3783 26.4667 99.3115 26.6333 99.2112 26.8667L98.3087 29.3C98.2084 29.6 98.0747 29.8 97.941 29.9333C97.7738 30.1 97.5398 30.2 97.2724 30.2C97.1721 30.2 97.0384 30.1667 96.9047 30.1333C96.771 30.1 96.6707 30.0333 96.5705 29.9333L96.8713 29.1667L97.005 29.2C97.005 29.2667 97.005 29.3 97.005 29.3333C97.005 29.4333 97.0384 29.5 97.1053 29.5667C97.1721 29.6333 97.239 29.6667 97.3393 29.6667C97.473 29.6667 97.6067 29.6 97.707 29.4667C97.8073 29.3333 97.8407 29.1667 97.8407 29C97.8407 28.9 97.8073 28.7667 97.7738 28.6C97.7404 28.5333 97.707 28.4 97.6067 28.2333L96.8713 26.6333C96.771 26.4333 96.7376 26.3333 96.7042 26.3C96.6373 26.2 96.5036 26.1333 96.4033 26.1333V26H98.2418V26.1333C98.175 26.1333 98.1081 26.1333 98.0412 26.1667C97.9744 26.2 97.9744 26.2333 97.9744 26.3C97.9744 26.3333 97.9744 26.3667 98.0078 26.4333C98.0412 26.5 98.0412 26.5667 98.0747 26.6L98.5092 27.7333L98.7766 26.7333Z" fill="#FF6400"/>
<path d="M102.821 28.4667C102.888 28.5667 102.955 28.6333 102.988 28.6667C103.055 28.7333 103.122 28.7667 103.222 28.7667V28.9H101.484V28.7667C101.517 28.7667 101.584 28.7667 101.584 28.7333C101.617 28.7333 101.617 28.7 101.617 28.6333C101.617 28.6 101.617 28.5667 101.584 28.5333C101.551 28.5 101.551 28.4333 101.517 28.4L101.149 27.8L100.815 28.2667C100.748 28.3333 100.715 28.4 100.682 28.4333C100.648 28.5 100.615 28.5667 100.615 28.6333C100.615 28.6667 100.615 28.7 100.648 28.7333C100.682 28.7667 100.715 28.7667 100.782 28.8V28.9333H99.6787V28.8C99.8124 28.7667 99.9461 28.7 100.08 28.5667C100.113 28.5333 100.214 28.4 100.381 28.2L100.916 27.4667L100.414 26.6333C100.314 26.4667 100.247 26.3667 100.214 26.3333C100.113 26.2333 100.013 26.1667 99.9127 26.1667V26H101.684V26.1333C101.617 26.1333 101.584 26.1667 101.551 26.1667C101.517 26.2 101.484 26.2333 101.484 26.2667C101.484 26.3 101.484 26.3333 101.517 26.3667C101.517 26.4 101.584 26.4667 101.617 26.5667L101.785 26.8333L101.885 26.7333C101.952 26.6667 101.985 26.5667 102.052 26.5C102.119 26.4 102.152 26.3 102.152 26.2333C102.152 26.2 102.152 26.1667 102.119 26.1333C102.085 26.1333 102.052 26.1 102.019 26.1V26H103.088V26.1333C102.955 26.1667 102.854 26.2 102.754 26.3C102.687 26.3333 102.62 26.4333 102.487 26.6L102.019 27.2L102.821 28.4667Z" fill="#FF6400"/>
<path d="M103.656 26.6333C103.656 26.3 103.556 26.1333 103.355 26.1333V26H104.993V26.1333C104.893 26.1333 104.826 26.1667 104.793 26.2333C104.759 26.3 104.726 26.4333 104.726 26.6V26.9H105.495V26.6C105.495 26.4333 105.461 26.3 105.428 26.2333C105.395 26.1667 105.328 26.1333 105.227 26.1333V26H106.865V26.1333C106.665 26.1333 106.564 26.3 106.564 26.6333V28.3C106.564 28.6333 106.665 28.7667 106.865 28.7667V28.9H105.227V28.7667C105.328 28.7667 105.395 28.7333 105.428 28.6667C105.461 28.6 105.495 28.4667 105.495 28.3V27.3H104.726V28.3C104.726 28.4667 104.759 28.6 104.793 28.6667C104.826 28.7333 104.893 28.7667 104.993 28.7667V28.9H103.355V28.7667C103.556 28.7667 103.656 28.6 103.656 28.3V26.6333Z" fill="#FF6400"/>
<path d="M108.236 27.5334C108.269 27.8 108.336 28.0334 108.47 28.2C108.637 28.4 108.837 28.5 109.071 28.5C109.305 28.5 109.506 28.4334 109.673 28.3C109.84 28.1667 109.974 28 110.074 27.7667L110.208 27.8L109.874 28.9334C109.84 28.9334 109.84 28.9 109.807 28.9C109.773 28.8667 109.74 28.8667 109.673 28.8667L109.539 28.9C109.406 28.9334 109.305 28.9334 109.172 28.9667C109.038 28.9667 108.938 29 108.804 29C108.57 29 108.369 28.9667 108.169 28.9C107.968 28.8334 107.801 28.7667 107.634 28.6334C107.433 28.5 107.3 28.3 107.199 28.1C107.099 27.9 107.032 27.6667 107.032 27.4C107.032 26.9334 107.199 26.5334 107.534 26.2667C107.834 26 108.236 25.8667 108.704 25.8667C109.105 25.8667 109.439 25.9667 109.673 26.1667C109.974 26.3667 110.141 26.6667 110.208 27.0667L108.236 27.5334ZM109.138 26.9667V26.8667C109.138 26.7334 109.105 26.6 109.004 26.5C108.904 26.4 108.804 26.3667 108.67 26.3667C108.503 26.3667 108.369 26.4667 108.269 26.6334C108.202 26.7667 108.169 26.9667 108.169 27.1667L109.138 26.9667Z" fill="#FF6400"/>
</svg>
