<svg width="245" height="65" viewBox="0 0 245 65" fill="none" xmlns="http://www.w3.org/2000/svg">
<path fill-rule="evenodd" clip-rule="evenodd" d="M153.92 35.5641C154.281 35.5641 154.576 35.6025 154.806 35.6792L158.319 25.3202L157.859 25.1283C156.841 27.6605 155.528 29.6172 153.887 31.0368C152.246 32.4564 150.276 33.1854 148.044 33.1854C144.105 33.1854 140.855 31.4972 138.328 28.0442C135.899 24.783 134.684 20.8312 134.684 16.1888C134.684 14.4623 134.914 12.7742 135.406 11.1244C135.899 9.47464 136.621 8.0167 137.54 6.75059C138.459 5.48448 139.509 4.56368 140.691 4.06491C141.873 3.56614 143.219 3.29757 144.794 3.29757C146.928 3.29757 148.865 3.87308 150.637 5.06245C152.41 6.25182 153.69 7.9016 154.478 10.0501L154.839 9.89667L152.804 0.151489C152.64 0.573525 152.41 0.842093 152.147 0.99556C151.885 1.14903 151.524 1.22576 151.097 1.22576L149.685 1.07229L144.794 0.611892C142.661 0.611892 140.691 0.918827 138.787 1.5327C136.883 2.14657 135.242 3.1441 133.765 4.56368C132.288 5.98325 131.172 7.74813 130.449 9.85831C129.694 11.9685 129.333 14.1938 129.333 16.5341C129.333 19.45 129.826 22.1741 130.778 24.7063C131.73 27.2385 133.141 29.4254 135.045 31.2287C136.785 32.9168 138.82 34.1062 141.118 34.8735C143.087 35.5257 145.385 35.871 147.978 35.871L153.329 35.5641H153.92ZM2.23215 3.02883C2.65889 3.83453 2.88867 5.44594 2.88867 7.86305V28.8114C2.88867 30.6146 2.75736 31.8807 2.49476 32.648C2.06802 33.799 1.24738 34.528 0 34.7582V35.2186H10.6684V34.7582C9.38816 34.6048 8.56752 33.8758 8.14079 32.5713C7.91101 31.804 7.7797 30.4228 7.7797 28.4277V17.1095L11.9814 13.1577C13.2288 14.7691 14.312 16.3038 15.264 17.7617C16.2159 19.2196 17.1022 20.7927 17.9557 22.5192C18.7763 24.2457 19.4985 25.8955 20.0565 27.4685C20.8115 29.6938 21.2054 31.4587 21.2054 32.7248C21.2054 33.9142 20.713 34.5664 19.6626 34.7582V35.2186H29.4447V34.7582C28.5584 34.6048 27.8034 33.9909 27.2125 32.8782C27.0484 32.5329 26.6545 31.497 26.0636 29.8089L25.2102 27.4301C24.0284 23.9388 22.6498 20.7927 21.107 17.9919C19.4657 14.9226 17.5618 12.1985 15.3953 9.85813L18.7107 6.63531C20.8772 4.5635 22.1246 3.4125 22.5185 3.14393C23.9956 2.06966 25.5056 1.53252 27.0156 1.53252V1.07212H16.3144V1.53252C16.7411 1.60926 17.0366 1.72436 17.2335 1.87782C17.4305 2.03129 17.5289 2.33823 17.5289 2.79863C17.5289 3.4125 16.9709 4.41004 15.9205 5.71451C15.067 6.78878 13.6227 8.32346 11.5875 10.2802L7.74688 13.8483V7.51775C7.74688 5.13901 8.00948 3.60433 8.46904 2.837C8.9286 2.06966 9.65077 1.64762 10.6355 1.53252V1.07212H0V1.53252C1.05042 1.72436 1.77259 2.22313 2.23215 3.02883ZM44.3177 14.8666L44.3176 14.867C44.2265 15.1816 44.1364 15.4932 44.0522 15.8049L40.2772 28.8112L35.2877 14.5004L35.229 14.3166L35.229 14.3165C35.138 14.0308 35.0212 13.6641 34.8609 13.1959C34.664 12.6204 34.5655 12.16 34.5655 11.7763C34.5655 11.3159 34.664 10.9706 34.8938 10.7021C35.1236 10.4335 35.4846 10.28 35.977 10.2033V9.7429H27.0812V10.2033C27.8362 10.2033 28.4928 10.7021 29.0836 11.6996C29.3462 12.1216 29.7401 13.0808 30.2653 14.5388L35.419 28.3508C36.174 30.3459 36.6335 31.6504 36.7977 32.2259C37.2901 33.7606 37.5198 35.1034 37.5198 36.216C37.5198 37.9042 37.2244 39.4005 36.6007 40.6282C35.8785 42.1245 34.8609 42.8535 33.5479 42.8535C32.7273 42.8535 32.0708 42.4698 31.6112 41.7025C31.1188 40.9352 30.889 40.0144 30.889 38.9401C30.889 38.5564 30.9219 38.1344 31.0203 37.7124L30.6593 37.4438L28.1317 44.4649C28.7554 45.1172 29.4775 45.5776 30.1997 45.8845C30.9219 46.1914 31.7097 46.3449 32.4975 46.3449C34.1716 46.3449 35.5831 45.8461 36.6664 44.8486C37.9137 43.6976 39.0955 41.3956 40.1131 37.9042L46.9737 14.8073C47.4004 13.2727 47.7615 12.3135 47.9912 11.8531C48.5165 10.8172 49.2386 10.28 50.1249 10.1266V9.66617H43.3628V10.1266C43.9537 10.2033 44.3804 10.3951 44.6102 10.6637C44.84 10.9323 44.9713 11.3159 44.9713 11.8147C44.9713 12.2368 44.8728 12.8123 44.6758 13.5796C44.5632 14.0186 44.4397 14.4451 44.3178 14.8662L44.3178 14.8664L44.3177 14.8665L44.3177 14.8666ZM70.0832 31.1516C70.2364 31.3946 70.3859 31.6376 70.5354 31.8805C70.8345 32.3665 71.1336 32.8525 71.4619 33.3385C72.0855 34.1826 72.7092 34.643 73.3657 34.7197V35.1801H64.2074V34.7197C65.1265 34.5663 65.5861 34.1826 65.5861 33.492C65.5861 32.9932 65.3563 32.2643 64.8639 31.3818C64.5453 30.8765 64.3057 30.4634 64.112 30.1297L64.1119 30.1294C64.0262 29.9818 63.9496 29.8497 63.8791 29.732L60.5637 23.9003L57.3468 28.5427C55.5742 31.1516 54.6879 32.8398 54.6879 33.6071C54.6879 34.221 55.1475 34.6046 56.0009 34.7581V35.2185H49.1732V34.7581C49.6984 34.6046 50.1908 34.3744 50.6175 33.9908C51.0443 33.6071 51.7336 32.7247 52.6199 31.3434L59.2507 21.8285L55.5414 15.5747C54.1299 13.1576 53.2764 11.8147 53.0138 11.4694C52.2588 10.6253 51.6023 10.1649 50.9786 10.1649V9.70454H60.4981V10.1649C59.5133 10.28 59.0209 10.7021 59.0209 11.5078C59.0209 11.9298 59.185 12.467 59.4805 13.1192C59.7102 13.618 60.0385 14.1935 60.4652 14.8841L62.1394 17.7616L64.1089 14.6922L64.3199 14.3552C64.8214 13.5547 65.1381 13.0491 65.225 12.8123C65.5532 12.1216 65.7502 11.5461 65.7502 11.1241C65.7502 10.4719 65.3234 10.1266 64.4371 10.1266V9.66617H71.8886V10.1266C70.8382 10.2417 69.7877 10.8939 68.7045 12.16C68.4872 12.414 67.8879 13.2458 66.8878 14.6339L66.8877 14.634L66.8865 14.6358L66.8863 14.6361L66.886 14.6364L66.8857 14.6369L66.8853 14.6374L66.8791 14.6461L66.8568 14.6769C66.6569 14.9544 66.4413 15.2537 66.2097 15.5747L63.2554 19.7183L70.0832 31.1516ZM81.736 20.4092H92.2074V28.8499C92.2074 30.7683 92.0761 32.1111 91.8463 32.9168C91.4524 34.1829 90.6974 34.7968 89.5485 34.7968V35.2572H99.3962V34.7968C98.4443 34.7968 97.7878 34.4131 97.361 33.6458C96.9343 32.8784 96.7373 31.3054 96.7373 28.8883V16.1121C96.7373 14.2321 96.8686 12.8893 97.0984 12.0836C97.4595 10.8175 98.2473 10.2036 99.3962 10.2036V9.74322H89.5485V10.2036C90.5004 10.2036 91.1569 10.5489 91.5837 11.3163C92.0104 12.0452 92.2074 13.6566 92.2074 16.0354V18.1072H81.736V16.0354C81.736 14.117 81.8673 12.8126 82.097 12.0069C82.4581 10.7791 83.2459 10.1653 84.3948 10.1653V9.70486H74.5471V10.1653C75.4991 10.1653 76.1556 10.5489 76.5823 11.3163C77.009 12.0836 77.206 13.6566 77.206 16.0738V28.8499C77.206 30.7299 77.0747 32.0727 76.8449 32.8784C76.4838 34.1446 75.696 34.7584 74.5471 34.7584V35.2188H84.3948V34.7584C83.4429 34.7584 82.7864 34.3748 82.3596 33.6074C81.9329 32.8401 81.736 31.2287 81.736 28.8116V20.4092ZM119.256 15.92L108.784 26.586V28.8496C108.784 31.2667 108.981 32.8398 109.408 33.6071C109.835 34.3744 110.491 34.7581 111.443 34.7581V35.2185H101.596V34.7581C102.744 34.643 103.499 33.9908 103.893 32.7247C104.123 31.9573 104.254 30.6912 104.254 28.8496V16.0734C104.254 14.1935 104.156 12.9274 103.959 12.2368C103.565 10.9706 102.777 10.28 101.596 10.1649V9.70454H111.443V10.1649C110.294 10.1649 109.507 10.7788 109.145 12.0449C108.916 12.8506 108.784 14.1935 108.784 16.0734V23.6701L119.256 13.0041C119.19 12.4286 119.092 11.9682 118.96 11.6996C118.501 10.7788 117.746 10.2417 116.597 10.1266V9.66617H126.445V10.1266C125.296 10.1266 124.508 10.7404 124.147 12.0065C123.917 12.8123 123.786 14.1551 123.786 16.0351V28.8112C123.786 31.2283 123.983 32.8014 124.409 33.5687C124.836 34.3361 125.493 34.7197 126.445 34.7197V35.1801H116.597V34.7197C117.746 34.6046 118.501 33.9524 118.895 32.6863C119.124 31.919 119.256 30.6528 119.256 28.8112V15.92ZM176.898 15.92L166.426 26.586V28.8496C166.426 31.2667 166.623 32.8398 167.05 33.6071C167.477 34.3744 168.133 34.7581 169.085 34.7581V35.2185H159.238V34.7581C160.387 34.643 161.174 33.9908 161.535 32.7247C161.765 31.9573 161.897 30.6912 161.897 28.8496V16.0734C161.897 14.1935 161.798 12.9274 161.601 12.2368C161.207 10.9706 160.419 10.28 159.238 10.1649V9.70454H169.085V10.1649C167.936 10.1649 167.149 10.7788 166.788 12.0449C166.558 12.8506 166.426 14.1935 166.426 16.0734V23.6701L176.898 13.0041C176.832 12.4286 176.734 11.9682 176.602 11.6996C176.143 10.7788 175.388 10.2417 174.239 10.1266V9.66617H184.087V10.1266C182.938 10.1266 182.15 10.7404 181.789 12.0065C181.559 12.8123 181.428 14.1551 181.428 16.0351V28.8112C181.428 31.2283 181.625 32.8014 182.051 33.5687C182.478 34.3361 183.135 34.7197 184.087 34.7197V35.1801H174.239V34.7197C175.388 34.6046 176.143 33.9524 176.537 32.6863C176.767 31.919 176.898 30.6528 176.898 28.8112V15.92ZM198.661 32.8401C198.432 32.1111 198.3 30.8066 198.3 28.8883H198.333V12.2371C200.894 12.2371 202.863 12.8509 204.176 14.0403C205.325 15.0379 206.343 16.8795 207.229 19.5268L207.623 19.3733L205.456 9.16773C205.292 9.4363 205.062 9.62813 204.767 9.70486C204.472 9.7816 204.11 9.81997 203.684 9.81997H202.83H189.306H188.453C187.96 9.81997 187.599 9.7816 187.337 9.70486C187.074 9.62813 186.844 9.4363 186.68 9.16773L184.513 19.3733L184.907 19.5268C185.827 16.8027 186.844 14.9611 187.96 13.9636C189.273 12.7742 191.21 12.1987 193.803 12.1987V28.8883C193.803 30.6915 193.672 31.996 193.409 32.8017C193.015 34.1062 192.195 34.7584 190.947 34.7584V35.2188H201.189V34.7584C199.909 34.7584 199.088 34.1062 198.661 32.8401ZM225.611 15.92L215.14 26.586V28.8496C215.14 31.2667 215.337 32.8398 215.764 33.6071C216.19 34.3744 216.847 34.7581 217.799 34.7581V35.2185H207.951V34.7581C209.1 34.643 209.888 33.9908 210.249 32.7247C210.479 31.9573 210.61 30.6912 210.61 28.8496V16.0734C210.61 14.1935 210.511 12.9274 210.315 12.2368C209.921 10.9706 209.133 10.28 207.951 10.1649V9.70454H217.799V10.1649C216.65 10.1649 215.862 10.7788 215.501 12.0449C215.271 12.8506 215.14 14.1935 215.14 16.0734V23.6701L225.611 13.0041C225.546 12.4286 225.447 11.9682 225.316 11.6996C224.856 10.7788 224.101 10.2417 222.952 10.1266V9.66617H232.8V10.1266C231.651 10.1266 230.863 10.7404 230.502 12.0065C230.273 12.8123 230.141 14.1551 230.141 16.0351V28.8112C230.141 31.2283 230.338 32.8014 230.765 33.5687C231.192 34.3361 231.848 34.7197 232.8 34.7197V35.1801H222.952V34.7197C224.101 34.6046 224.856 33.9524 225.25 32.6863C225.48 31.919 225.611 30.6528 225.611 28.8112V15.92ZM239.694 6.98089V8.28537H240.449C240.515 8.28537 240.588 8.28778 240.665 8.29033C241.205 8.30817 241.959 8.33303 241.959 7.59476C241.959 7.05763 241.335 6.98089 240.875 6.98089H239.694ZM242.582 7.6715C242.582 8.66903 241.959 9.0527 241.171 9.09107L242.484 11.5082H241.729L240.416 9.09107H239.661V11.5082H239.037V6.29029H240.974C241.795 6.29029 242.582 6.55886 242.582 7.6715ZM244.65 8.86087C244.65 11.5465 242.878 13.6567 240.58 13.6567C238.282 13.6567 236.477 11.5465 236.477 8.86087C236.477 6.17519 238.282 4.06501 240.58 4.06501C242.845 4.06501 244.65 6.17519 244.65 8.86087ZM237.1 8.89924C237.1 11.1245 238.709 12.9278 240.58 12.9278C242.451 12.9278 244.06 11.1245 244.027 8.89924C244.027 6.63559 242.451 4.87072 240.58 4.87072C238.709 4.87072 237.1 6.63559 237.1 8.89924Z" fill="#FF6400"/>
<path fill-rule="evenodd" clip-rule="evenodd" d="M7.68105 61.4235C7.77952 61.4618 7.81235 61.5002 7.878 61.6153L8.92843 58.3925L8.63299 58.2774C8.40321 58.8913 8.10778 59.39 7.64822 59.7353C7.22149 60.0806 6.69627 60.2725 6.13824 60.2725C5.67868 60.2725 5.21912 60.1574 4.79238 59.8888C4.36565 59.6202 4.00456 59.2749 3.74196 58.8529C3.47935 58.4309 3.2824 57.9705 3.15109 57.4717C3.01979 56.9729 2.95414 56.4741 2.95414 55.937C2.95414 55.0162 3.15109 54.2489 3.51218 53.635C3.93891 52.9444 4.52978 52.5991 5.28477 52.5991C5.97411 52.5991 6.56497 52.8677 7.09018 53.4815C7.54974 53.9803 7.91083 54.6709 8.14061 55.4766L8.40321 55.3999L7.68105 51.2179C7.54974 51.4865 7.35279 51.6016 7.05736 51.6016H6.79475C6.7291 51.6016 6.66345 51.6016 6.5978 51.5632C6.42134 51.5426 6.25436 51.5109 6.09177 51.48C5.95191 51.4534 5.81529 51.4275 5.67868 51.4097L5.67857 51.4097C5.38317 51.3714 5.08778 51.333 4.79238 51.333C3.47935 51.333 2.3961 51.755 1.54263 52.5991C0.656338 53.4815 0.196777 54.6709 0.196777 56.2056C0.196777 57.8937 0.721989 59.2366 1.80524 60.1957C2.75719 61.0782 4.00456 61.5002 5.48172 61.5002L7.28714 61.3851H7.41844H7.41846C7.51693 61.3851 7.6154 61.3851 7.68105 61.4235ZM13.524 60.2726C13.4912 60.1575 13.4912 59.8506 13.4912 59.3902V54.9396C13.9836 54.9396 14.4431 55.1314 14.7714 55.5151C15.0668 55.8604 15.3294 56.3592 15.5592 57.0498L15.8218 56.973L15.2309 53.7886C15.1653 53.8653 15.0668 53.9421 14.9355 53.9804C14.8042 54.0188 14.6401 54.0188 14.4432 54.0188H14.4431H14.1149H10.3399H10.1758H10.0117H10.0116C9.8475 54.0188 9.71621 54.0188 9.61774 53.9804C9.51927 53.9421 9.45362 53.9037 9.38797 53.7886L8.76428 56.973L9.02688 57.0498C9.19101 56.3975 9.45362 55.8988 9.8147 55.5151C10.1758 55.1698 10.6353 54.978 11.1277 54.978V59.3902C11.1277 60.0424 11.0621 60.4644 10.9636 60.6563C10.8651 60.8481 10.701 60.9248 10.4712 60.9248V61.3085H14.1149V60.9248C13.7866 60.9248 13.5897 60.6946 13.524 60.2726ZM16.6426 55.5915C16.6426 54.7858 16.4128 54.4021 15.9533 54.4021V54.0185H19.5969V54.4021C19.1702 54.4021 18.9732 54.7858 18.9732 55.5915V57.4331L20.6802 55.5915C20.6802 55.1695 20.6473 54.8626 20.5489 54.6707C20.4504 54.4789 20.3191 54.4021 20.0893 54.4021V54.0185H23.7001V54.4021C23.2406 54.4021 23.0108 54.7858 23.0108 55.5915V59.6968C23.0108 60.5025 23.2406 60.8861 23.7001 60.8861V61.2698H20.0893V60.8861C20.3191 60.8861 20.4832 60.8094 20.5489 60.6176C20.6473 60.4257 20.6802 60.1188 20.6802 59.7351V56.8576L18.9732 58.6992V59.7735C18.9732 60.5792 19.1702 60.9629 19.5969 60.9629V61.3465H15.9861V60.9629C16.4457 60.9629 16.6754 60.5792 16.6754 59.7735V55.5915H16.6426ZM25.6697 57.2416C25.9323 56.4359 26.2606 55.822 26.6545 55.4C26.8514 55.2082 27.0156 55.0547 27.1797 55.0163C27.3438 54.9396 27.5408 54.9012 27.7706 54.9012C27.9675 54.9012 28.0988 54.978 28.1645 55.1314C28.1973 55.2849 28.2301 55.5918 28.2301 56.0139V59.5053C28.2301 60.1191 28.1973 60.5412 28.0988 60.733C28.0003 60.9248 27.8362 61.0016 27.6393 61.0016V61.3852H31.2501V61.0016C30.9547 61.0016 30.7577 60.8481 30.6592 60.5412C30.5936 60.3493 30.5608 60.004 30.5608 59.4669V55.9755C30.5608 55.4767 30.5936 55.0931 30.6592 54.9012C30.7577 54.5943 30.9547 54.4408 31.2501 54.4408V54.0572H25.6369V54.4408H25.7354C25.9323 54.4408 26.0308 54.5176 26.0308 54.671C26.0308 54.7478 26.0308 54.7861 25.998 54.8629C25.998 54.9012 25.9652 54.978 25.8995 55.0547C25.1117 56.0906 24.5865 57.28 24.291 58.6612C24.1269 59.4285 24.0613 60.2342 24.0613 61.155V61.3085H26.556V60.9248C26.1621 60.9248 25.8667 60.8097 25.6041 60.5412C25.3743 60.311 25.2758 60.0808 25.2758 59.8122C25.2758 58.8914 25.4071 58.0473 25.6697 57.2416ZM35.3863 60.426C35.7146 60.426 35.9772 60.3109 36.2069 60.0423C36.4367 59.7737 36.5352 59.4668 36.5352 59.0448C36.5352 58.546 36.4039 58.124 36.1085 57.7787C35.7802 57.395 35.3535 57.2032 34.8283 57.2032V59.3901C34.8283 59.7737 34.8611 60.0423 34.9267 60.1958C34.9924 60.3876 35.1565 60.426 35.3863 60.426ZM31.7755 61.2317V60.8864C32.0052 60.8864 32.1694 60.7713 32.3007 60.5795C32.3992 60.3876 32.4648 59.9656 32.4648 59.3517V55.8603C32.4648 55.3616 32.432 55.0163 32.3663 54.8244C32.2678 54.5175 32.0709 54.364 31.7755 54.364V53.9803H35.5504V54.364C35.2222 54.364 34.9924 54.5175 34.8939 54.8244C34.8283 55.0163 34.7954 55.3616 34.7954 55.8603V56.3207C35.9772 56.3207 36.8963 56.5126 37.5856 56.8962C38.4391 57.3566 38.8658 58.0856 38.8658 59.0448C38.8658 59.7354 38.5376 60.2725 37.9139 60.6562C37.2902 61.0399 36.4367 61.2317 35.3206 61.2317H31.7755ZM46.3497 59.3898V57.8935L47.4658 57.5482C47.7284 57.625 47.9582 57.8168 48.0895 58.0854C48.2536 58.3156 48.3192 58.6609 48.3192 59.0445C48.3192 59.4666 48.2208 59.8502 47.991 60.0804C47.7612 60.349 47.4658 60.4641 47.1047 60.4641C46.8093 60.4641 46.6123 60.3874 46.5138 60.2339C46.4154 60.0804 46.3497 59.8119 46.3497 59.3898ZM47.4001 55.1311C47.4986 55.2846 47.5643 55.5148 47.5643 55.745C47.5643 56.0136 47.4986 56.2054 47.3345 56.3589C47.2032 56.5507 47.039 56.6658 46.8093 56.7425L46.3169 56.896V55.8985C46.3169 55.4381 46.3825 55.1695 46.481 55.016C46.5467 54.9009 46.678 54.8626 46.9077 54.8626C47.1375 54.8626 47.3017 54.9777 47.4001 55.1311ZM49.5666 56.3589C49.8621 56.0519 49.9934 55.7834 49.9934 55.4764C49.9934 54.8242 49.6651 54.4021 49.0086 54.1719C48.6803 54.0568 48.0566 54.0185 47.2032 54.0185H43.3297V54.4021C43.6252 54.4021 43.8221 54.5556 43.9206 54.8626C43.9863 55.0544 44.0191 55.3997 44.0191 55.8985V59.3898C44.0191 59.8502 43.9863 60.1955 43.9206 60.4257C43.8221 60.7327 43.6252 60.8861 43.3297 60.8861V61.2698H47.4986C48.4506 61.2698 49.2384 61.078 49.8621 60.6943C50.5514 60.2723 50.8797 59.6968 50.8797 58.8911C50.8797 58.3923 50.6499 57.9319 50.256 57.5866C49.8292 57.2413 49.304 57.0111 48.6803 56.896C49.0414 56.7809 49.3368 56.5891 49.5666 56.3589ZM59.3817 61.1933V60.8864C59.6443 60.8864 59.8084 60.7329 59.9069 60.426C59.9725 60.2342 59.9725 59.8505 59.9725 59.275V57.9705L59.5786 57.5485C59.3489 57.8554 59.1191 58.3158 58.8893 58.8913C58.6595 59.5052 58.5282 59.9656 58.5282 60.3109C58.5282 60.6946 58.6923 60.8864 59.0534 60.8864V61.2701H54.9502V60.8864C55.2128 60.8864 55.4426 60.6946 55.6724 60.3109C55.6868 60.294 55.7202 60.2179 55.7782 60.0859L55.7783 60.0857L55.7783 60.0856L55.7784 60.0855L55.7784 60.0854L55.7785 60.0853L55.7785 60.0852C55.8525 59.9166 55.9665 59.6571 56.1319 59.3133L56.5915 58.2391C56.7556 57.8554 56.9854 57.4334 57.248 56.973C57.445 56.6277 57.7076 56.2056 58.003 55.7836L57.7732 55.5534C57.445 55.2081 57.0511 54.9395 56.6243 54.7093C56.1976 54.4791 55.7708 54.364 55.3769 54.364V53.9803H58.9549V54.364C58.8236 54.364 58.7252 54.4024 58.6267 54.4791C58.5282 54.5559 58.4954 54.6326 58.4954 54.7861C58.4954 54.9012 58.5939 55.093 58.8236 55.3999L58.8237 55.4C58.955 55.5918 59.0863 55.7836 59.2504 55.9754L60.0054 56.9346V55.5534C60.0054 55.1697 59.9725 54.9012 59.9397 54.7477C59.8412 54.4791 59.6771 54.364 59.4145 54.364V53.9803H62.9269V54.364C62.6642 54.364 62.5001 54.4791 62.4016 54.7477C62.336 54.9012 62.336 55.1697 62.336 55.5534V56.9346L63.091 55.9754C63.2554 55.7833 63.3862 55.5911 63.5074 55.4131L63.5075 55.4129L63.5077 55.4126C63.5558 55.3419 63.6024 55.2735 63.649 55.2081L63.649 55.208C63.7803 54.9779 63.846 54.8628 63.846 54.7861C63.846 54.6709 63.7803 54.5559 63.6819 54.4791C63.5834 54.4024 63.4849 54.364 63.3536 54.364V53.9803H66.9316V54.364C66.5049 54.364 66.111 54.4791 65.6842 54.671C65.2575 54.9012 64.8964 55.1697 64.5353 55.515L64.3055 55.7452C64.3608 55.8292 64.4142 55.9098 64.4655 55.9874L64.4731 55.9988L64.4744 56.0008L64.4771 56.0049L64.4772 56.005C64.7257 56.3804 64.9261 56.6832 65.0605 56.9346C65.2903 57.3183 65.5201 57.7787 65.717 58.2007L66.1766 59.275C66.3604 59.7354 66.5022 60.0485 66.5684 60.1946L66.5684 60.1946L66.5954 60.2545L66.6033 60.2725C66.8331 60.6562 67.0629 60.848 67.3583 60.848V61.2317H63.3208V60.848C63.6162 60.848 63.7803 60.6562 63.7803 60.2725C63.7803 59.9272 63.649 59.4284 63.4192 58.8529C63.1895 58.2774 62.9597 57.817 62.6971 57.4717L62.3032 57.8938V59.1982C62.3032 59.9272 62.336 60.3492 62.4345 60.5411C62.5329 60.7329 62.6643 60.8097 62.894 60.8097V61.1933H59.3817ZM67.424 54.4021C67.8835 54.4021 68.1133 54.7858 68.1133 55.5915V59.7735C68.1133 60.5792 67.8835 60.9629 67.424 60.9629V61.3465H71.0676V60.9629C70.6409 60.9629 70.4439 60.5792 70.4439 59.7735V58.6992L72.1509 56.8576V59.7351C72.1509 60.1188 72.118 60.4257 72.0196 60.6176C71.9539 60.8094 71.7898 60.8861 71.56 60.8861V61.2698H75.1708V60.8861C74.7113 60.8861 74.4815 60.5025 74.4815 59.6968V55.5915C74.4815 54.7858 74.7113 54.4021 75.1708 54.4021V54.0185H71.56V54.4021C71.7898 54.4021 71.9211 54.4789 72.0196 54.6707C72.118 54.8626 72.1509 55.1695 72.1509 55.5915L70.4439 57.4331V55.5915C70.4439 54.7858 70.6409 54.4021 71.0676 54.4021V54.0185H67.424V54.4021ZM80.1932 57.0494C80.8169 57.2028 81.2765 57.4331 81.6375 57.74C82.0315 58.0853 82.2284 58.5457 82.2284 59.0828C82.2284 59.8118 81.9002 60.3873 81.2765 60.8093C80.6528 61.2314 79.7336 61.4616 78.5191 61.4616C78.4037 61.4616 78.2395 61.4426 78.0267 61.418C77.9369 61.4076 77.8384 61.3962 77.7313 61.3848C77.6562 61.3769 77.5839 61.3689 77.5147 61.3612L77.514 61.3612L77.5139 61.3612C77.2511 61.3321 77.0336 61.3081 76.8778 61.3081C76.6152 61.3081 76.3526 61.3465 76.1556 61.4232L75.9915 61.4616L75.4991 59.1596L75.7617 59.0828L75.8274 59.1596C76.0243 59.5049 76.3526 59.8118 76.845 60.0804C77.3373 60.3489 77.8297 60.5024 78.2893 60.5024C78.716 60.5024 79.0771 60.3873 79.3069 60.1187C79.5695 59.8502 79.668 59.5049 79.668 59.0828C79.668 58.6224 79.5367 58.2771 79.2412 58.0469C78.913 57.7783 78.3878 57.6632 77.6328 57.6632H77.5015V56.8575H77.6328C78.1908 56.8575 78.5519 56.7808 78.7817 56.589C78.9786 56.4355 79.0771 56.1286 79.0771 55.7065C79.0771 55.4763 78.9786 55.2461 78.8473 55.0927C78.6832 54.9008 78.4863 54.8241 78.2565 54.8241C77.8297 54.8241 77.4358 54.9776 77.0419 55.2461C76.7137 55.4763 76.4182 55.86 76.1228 56.3588L76.09 56.4355L75.7617 56.3204L76.648 53.6731L76.7793 53.9417C76.8121 54.0184 76.9106 54.0568 77.0419 54.0568C77.1527 54.0383 77.2635 54.0287 77.3706 54.0194C77.4856 54.0095 77.5964 53.9999 77.6984 53.98C77.8954 53.9417 78.1252 53.9417 78.4206 53.9417C79.5039 53.9417 80.3245 54.0951 80.7841 54.3637C81.2765 54.6323 81.5062 55.0543 81.5062 55.6298C81.5062 55.9751 81.3749 56.282 81.0795 56.589C80.8825 56.8192 80.5543 56.9726 80.1932 57.0494ZM82.4912 54.4021C82.9508 54.4021 83.1805 54.7858 83.1805 55.5915V59.6968C83.1805 60.5025 82.9508 60.8861 82.4912 60.8861V61.2698H86.102V60.8861C85.8723 60.8861 85.741 60.8094 85.6425 60.6176C85.544 60.4641 85.5112 60.1572 85.5112 59.7351V57.2413H87.2181V59.7351C87.2181 60.1188 87.1853 60.4257 87.0868 60.6176C87.0212 60.8094 86.857 60.8861 86.6273 60.8861V61.2698H90.2381V60.8861C89.7785 60.8861 89.5487 60.5025 89.5487 59.6968V55.5915C89.5487 54.7858 89.7785 54.4021 90.2381 54.4021V54.0185H86.6273V54.4021C86.857 54.4021 86.9883 54.4789 87.0868 54.6707C87.1853 54.8626 87.2181 55.1695 87.2181 55.5915V56.2821H85.5112V55.5915C85.5112 55.1695 85.544 54.8626 85.6425 54.6707C85.7081 54.4789 85.8723 54.4021 86.102 54.4021V54.0185H82.4912V54.4021ZM91.4526 55.5915C91.4526 54.7858 91.2228 54.4021 90.7632 54.4021V54.0185H94.4069V54.4021C93.9801 54.4021 93.7832 54.7858 93.7832 55.5915V57.4331L95.4901 55.5915C95.4901 55.1695 95.4573 54.8626 95.3588 54.6707C95.2604 54.4789 95.1291 54.4021 94.8993 54.4021V54.0185H98.5101V54.4021C98.0505 54.4021 97.8208 54.7858 97.8208 55.5915V59.6968C97.8208 60.5025 98.0505 60.8861 98.5101 60.8861V61.2698H94.8993V60.8861C95.1291 60.8861 95.2932 60.8094 95.3588 60.6176C95.4573 60.4257 95.4901 60.1188 95.4901 59.7351V56.8576L93.7832 58.6992V59.7735C93.7832 60.5792 93.9801 60.9629 94.4069 60.9629V61.3465H90.7632V60.9629C91.2228 60.9629 91.4526 60.5792 91.4526 59.7735V55.5915ZM105.732 58.6227C105.863 58.6994 105.929 58.7762 105.994 58.968L106.848 56.5125L106.651 56.3974C106.585 56.5509 106.487 56.6276 106.388 56.666C106.29 56.7044 106.093 56.7427 105.797 56.7427H105.009H104.78C104.648 56.7427 104.55 56.7044 104.451 56.666C104.353 56.6276 104.287 56.5125 104.254 56.3974L103.368 58.8529L103.565 58.968C103.664 58.7762 103.795 58.6611 103.959 58.6227C104.123 58.5843 104.32 58.546 104.55 58.546H104.911H105.206C105.436 58.546 105.6 58.5843 105.732 58.6227ZM115.809 55.9371L114.923 56.936V55.6302C114.923 55.2465 114.956 55.0163 115.021 54.8245C115.087 54.5559 115.284 54.4408 115.514 54.4408V54.0572H111.903V54.4408C112.362 54.4408 112.592 54.8245 112.592 55.6302V59.7355C112.592 60.5412 112.362 60.9248 111.903 60.9248V61.3085H115.514V60.9248C115.251 60.9248 115.054 60.733 114.988 60.4261C114.956 60.2342 114.923 59.8506 114.923 59.2751V57.9706L115.317 57.5486C115.375 57.6424 115.435 57.7363 115.496 57.8311C115.708 58.1622 115.926 58.5036 116.105 58.8914C116.4 59.5053 116.564 60.004 116.564 60.3493C116.564 60.5412 116.498 60.6563 116.4 60.7714C116.301 60.8865 116.17 60.9248 116.006 60.9248V61.3085H120.109V60.9248C119.847 60.9248 119.617 60.733 119.387 60.3493C119.354 60.311 119.19 59.9657 118.928 59.3518L118.468 58.2775C118.271 57.8555 118.041 57.3951 117.811 57.0114C117.677 56.76 117.477 56.4572 117.228 56.0819L117.227 56.0797C117.172 55.9974 117.115 55.9116 117.056 55.822L117.286 55.5918C117.647 55.2465 118.008 54.978 118.435 54.7478C118.862 54.5559 119.256 54.4408 119.683 54.4408V54.0572H116.006V54.4408C116.137 54.4408 116.269 54.4408 116.367 54.5176C116.466 54.5559 116.531 54.671 116.531 54.7861C116.531 55.0163 116.301 55.4 115.809 55.9371ZM125.066 58.7761C125 59.083 124.935 59.3516 124.869 59.5434C124.803 59.7736 124.672 59.9654 124.541 60.1189C124.377 60.2724 124.213 60.3491 124.016 60.3491C123.523 60.3491 123.129 60.0038 122.9 59.2365C122.735 58.6993 122.637 58.0854 122.637 57.3948C122.637 56.781 122.703 56.2822 122.867 55.8602C123.064 55.2847 123.392 54.9777 123.852 54.9777C124.049 54.9777 124.245 55.0545 124.442 55.2463C124.607 55.3998 124.738 55.5916 124.836 55.8602C124.935 56.0904 125.033 56.4357 125.066 56.781L125.074 56.877L125.074 56.8772C125.104 57.2231 125.132 57.5423 125.132 57.8936C125.132 58.1621 125.099 58.469 125.066 58.7758L125.066 58.7761ZM120.438 59.4667C120.635 60.0038 120.93 60.3875 121.324 60.6944C121.652 60.963 122.079 61.1932 122.473 61.2699C122.932 61.385 123.359 61.4617 123.852 61.4617C124.902 61.4617 125.788 61.1548 126.478 60.5026C127.233 59.812 127.627 58.8528 127.627 57.6634C127.627 56.4357 127.265 55.4765 126.543 54.7859C125.887 54.1337 125.033 53.8267 123.983 53.8267C122.9 53.8267 122.013 54.172 121.291 54.8626C120.536 55.5916 120.142 56.5891 120.142 57.8169C120.142 58.3924 120.241 58.9295 120.438 59.4667ZM129.826 59.3133C129.826 60.0039 129.891 60.426 129.99 60.6178C130.088 60.8096 130.285 60.9247 130.548 60.9247V61.3084H128.185V60.9247C128.513 60.8864 128.71 60.6945 128.775 60.426C128.841 60.2725 128.841 59.9272 128.841 59.3901V56.0522C128.841 55.515 128.808 55.1697 128.775 54.9779C128.677 54.6709 128.48 54.4791 128.185 54.4024V54.0187H131.992V54.4024C131.828 54.4024 131.73 54.5175 131.73 54.7093C131.73 54.9012 131.828 55.093 131.992 55.3232L132.747 56.5509L133.502 55.3232C133.666 55.0546 133.732 54.8628 133.732 54.6326C133.732 54.4408 133.666 54.364 133.535 54.364V53.9803H136.883V54.364C136.555 54.4408 136.358 54.5942 136.293 54.8628C136.227 55.0163 136.227 55.3616 136.227 55.8603V59.2366C136.227 59.8505 136.26 60.2341 136.293 60.3876C136.391 60.6945 136.588 60.848 136.883 60.848V61.2317H133.273V60.848C133.535 60.848 133.699 60.7329 133.765 60.5411C133.831 60.3876 133.863 60.119 133.863 59.7354V59.3133V56.3207L131.795 59.6203L129.793 56.3591V59.3133H129.826ZM144.499 60.3877C144.171 60.3877 144.006 60.0424 144.006 59.2751H144.072V54.9013L144.269 54.8629C144.729 54.8629 145.09 55.1698 145.352 55.7453C145.615 56.3208 145.746 57.0115 145.746 57.8172C145.746 58.5461 145.615 59.16 145.418 59.6588C145.188 60.1575 144.893 60.3877 144.499 60.3877ZM141.479 54.8629L141.676 54.9013V59.2751C141.676 59.6971 141.643 59.9657 141.577 60.1575C141.512 60.3494 141.38 60.4261 141.216 60.4261C140.789 60.4261 140.494 60.1959 140.297 59.6971C140.1 59.1984 140.002 58.5845 140.002 57.8172C140.002 57.0115 140.133 56.3208 140.396 55.7453C140.658 55.1315 141.019 54.8629 141.479 54.8629ZM140.986 51.947C141.446 51.947 141.676 52.3691 141.676 53.1364V53.9037C141.605 53.9037 141.535 53.8927 141.47 53.8825C141.413 53.8736 141.36 53.8654 141.315 53.8654C141.183 53.827 141.085 53.827 140.921 53.827C139.87 53.827 139.017 54.1723 138.393 54.9013C137.77 55.6302 137.441 56.6278 137.441 57.9323C137.441 58.4694 137.507 58.9682 137.704 59.4286C137.901 59.9273 138.163 60.311 138.492 60.6179C138.82 60.9249 139.181 61.1551 139.542 61.2702C139.903 61.3853 140.33 61.462 140.789 61.462L141.643 61.3853V62.9583C141.643 63.342 141.544 63.6489 141.413 63.8408C141.249 64.0326 141.052 64.1477 140.822 64.1477V64.5314H144.761V64.1477C144.532 64.1477 144.335 64.071 144.203 63.8408C144.072 63.6106 144.006 63.342 144.006 62.9583V61.3853L144.86 61.462C145.319 61.462 145.746 61.3853 146.107 61.2702C146.468 61.1551 146.829 60.9249 147.158 60.6179C147.486 60.2726 147.749 59.889 147.945 59.4286C148.11 58.9682 148.208 58.4694 148.208 57.9323C148.208 56.6278 147.88 55.6302 147.256 54.9013C146.6 54.1723 145.779 53.827 144.729 53.827C144.663 53.827 144.532 53.827 144.335 53.8654C144.171 53.9037 144.039 53.9037 144.006 53.9037V51.3715L140.986 51.5634V51.947ZM153.493 59.5434C153.559 59.3516 153.624 59.083 153.69 58.7761C153.723 58.4691 153.756 58.1622 153.756 57.8936C153.756 57.5423 153.728 57.2232 153.698 56.8774V56.8772V56.877V56.8768L153.69 56.781C153.657 56.4357 153.559 56.0904 153.46 55.8602C153.362 55.5916 153.23 55.3998 153.066 55.2463C152.869 55.0545 152.672 54.9777 152.475 54.9777C152.016 54.9777 151.688 55.2847 151.491 55.8602C151.326 56.2822 151.261 56.781 151.261 57.3948C151.261 58.0854 151.359 58.6993 151.523 59.2365C151.753 60.0038 152.147 60.3491 152.639 60.3491C152.836 60.3491 153.001 60.2724 153.165 60.1189C153.296 59.9654 153.394 59.7736 153.493 59.5434ZM149.948 60.6944C149.554 60.3875 149.258 60.0038 149.061 59.4667C148.865 58.9295 148.766 58.3924 148.766 57.8169C148.766 56.5891 149.16 55.5916 149.915 54.8626C150.637 54.172 151.523 53.8267 152.607 53.8267C153.657 53.8267 154.511 54.1337 155.167 54.7859C155.889 55.4765 156.25 56.4357 156.25 57.6634C156.25 58.8528 155.856 59.812 155.101 60.5026C154.412 61.1548 153.526 61.4617 152.475 61.4617C151.983 61.4617 151.556 61.385 151.097 61.2699C150.67 61.1932 150.276 60.963 149.948 60.6944ZM159.795 59.7354V59.275V54.9779H159.96C160.616 54.9779 161.109 55.2465 161.502 55.822C161.864 56.3207 162.028 56.973 162.028 57.7403C162.028 58.4309 161.929 59.0064 161.667 59.5052C161.338 60.0807 160.944 60.3876 160.386 60.3876C160.157 60.3876 160.025 60.3109 159.894 60.119C159.828 60.0423 159.795 59.8888 159.795 59.7354ZM162.159 54.2105C161.732 54.0954 161.24 54.0571 160.682 54.0571V53.9803H156.743V54.364C157.202 54.364 157.432 54.786 157.432 55.5534V62.8815C157.432 63.2651 157.366 63.5721 157.202 63.7639C157.038 63.9557 156.841 64.0708 156.611 64.0708V64.4545H160.55V64.0708C160.321 64.0708 160.124 63.9557 159.992 63.7639C159.861 63.5337 159.795 63.2651 159.795 62.8815V61.3084C159.96 61.3468 160.124 61.3851 160.288 61.3851C160.485 61.4235 160.616 61.4235 160.78 61.4235C161.273 61.4235 161.732 61.3851 162.159 61.27C162.717 61.1166 163.144 60.9247 163.439 60.6178C164.194 59.9272 164.555 59.0064 164.555 57.8554C164.555 57.2799 164.457 56.7428 164.227 56.2056C163.997 55.7069 163.702 55.2465 163.341 54.9012C162.98 54.5558 162.586 54.3256 162.159 54.2105ZM169.381 59.3902C169.381 59.8506 169.381 60.1575 169.413 60.2726C169.479 60.6946 169.676 60.9248 170.004 60.9248V61.3085H166.361V60.9248C166.59 60.9248 166.755 60.8481 166.886 60.6563C166.984 60.4644 167.05 60.0424 167.05 59.3902V54.978C166.558 54.978 166.098 55.1698 165.737 55.5151C165.376 55.8988 165.113 56.3975 164.949 57.0498L164.687 56.973L165.31 53.7886C165.376 53.9037 165.442 53.9421 165.54 53.9804C165.638 54.0188 165.77 54.0188 165.934 54.0188H166.098H166.262H170.037H170.365C170.562 54.0188 170.694 54.0188 170.858 53.9804C170.989 53.9421 171.088 53.8653 171.153 53.7886L171.744 56.973L171.482 57.0498C171.252 56.3592 170.989 55.8604 170.694 55.5151C170.365 55.1314 169.906 54.9396 169.413 54.9396V59.3902H169.381ZM176.11 54.4021C176.57 54.4021 176.799 54.7858 176.799 55.5915V59.6968C176.799 60.5025 176.57 60.8861 176.11 60.8861V61.2698H179.721V60.8861C179.491 60.8861 179.36 60.8094 179.261 60.6176C179.163 60.4641 179.13 60.1572 179.13 59.7351V57.2413H180.837V59.7351C180.837 60.1188 180.804 60.4257 180.706 60.6176C180.64 60.8094 180.476 60.8861 180.246 60.8861V61.2698H183.857V60.8861C183.397 60.8861 183.168 60.5025 183.168 59.6968V55.5915C183.168 54.7858 183.397 54.4021 183.857 54.4021V54.0185H180.246V54.4021C180.476 54.4021 180.607 54.4789 180.706 54.6707C180.804 54.8626 180.837 55.1695 180.837 55.5915V56.2821H179.13V55.5915C179.13 55.1695 179.163 54.8626 179.261 54.6707C179.327 54.4789 179.491 54.4021 179.721 54.4021V54.0185H176.11V54.4021ZM187.533 57.7018C187.336 57.8552 187.139 58.0471 187.008 58.3157C186.844 58.5459 186.778 58.8144 186.778 59.083C186.778 59.3132 186.844 59.5434 186.975 59.7352C187.107 59.9271 187.271 60.0038 187.468 60.0038C187.927 60.0038 188.255 59.6585 188.42 59.0063C188.551 58.5458 188.617 57.9703 188.617 57.3181C188.441 57.3437 188.296 57.3863 188.169 57.4233C188.106 57.4417 188.048 57.4588 187.993 57.4716C187.862 57.5099 187.697 57.5867 187.533 57.7018ZM188.617 56.3206V56.052V56.0518C188.617 55.8984 188.617 55.745 188.584 55.63C188.551 55.5149 188.518 55.4381 188.452 55.323C188.321 55.1696 188.19 55.0928 188.026 55.0161C187.862 54.9777 187.697 54.9394 187.468 54.9394C186.975 54.9394 186.516 55.0928 186.122 55.3998C185.728 55.7067 185.432 56.1671 185.235 56.7042H184.973L185.235 54.0569C185.301 54.1337 185.367 54.2104 185.432 54.2488C185.498 54.2871 185.564 54.3255 185.662 54.3255C185.728 54.3255 185.826 54.3255 185.925 54.2871C185.974 54.2679 186.015 54.2584 186.056 54.2488C186.097 54.2392 186.138 54.2296 186.187 54.2104C186.811 54.0569 187.304 53.9418 187.599 53.9035C187.894 53.8651 188.19 53.8267 188.485 53.8267C188.879 53.8267 189.24 53.8651 189.568 53.9418C189.897 54.0186 190.159 54.172 190.422 54.3639C190.685 54.5941 190.849 54.901 190.914 55.3614C190.98 55.63 190.98 56.052 190.98 56.5891V59.2748V59.5818C190.98 59.9654 191.013 60.2724 191.078 60.4258C191.177 60.6944 191.374 60.8479 191.669 60.8862V61.2699H189.076C188.978 61.1548 188.879 61.0013 188.814 60.8479C188.799 60.8041 188.784 60.7624 188.769 60.7218C188.72 60.5841 188.675 60.4588 188.649 60.3107C188.452 60.656 188.091 60.963 187.632 61.1932C187.205 61.385 186.778 61.5001 186.352 61.5001C185.859 61.5001 185.432 61.3466 185.071 61.0397C184.677 60.6944 184.48 60.234 184.48 59.6585C184.48 58.9679 184.743 58.354 185.235 57.8936C185.629 57.5099 186.187 57.203 186.91 56.9344C187.402 56.7426 187.993 56.6275 188.682 56.5124V56.3206H188.617ZM199.252 56.9361L200.139 55.9371C200.631 55.4 200.861 55.0163 200.861 54.7861C200.861 54.671 200.795 54.5559 200.697 54.5176C200.598 54.4408 200.467 54.4408 200.336 54.4408V54.0572H204.012V54.4408C203.585 54.4408 203.191 54.5559 202.765 54.7478C202.338 54.978 201.977 55.2465 201.616 55.5918L201.386 55.822C201.446 55.9124 201.503 55.999 201.558 56.082L201.558 56.0824C201.806 56.4575 202.007 56.7602 202.141 57.0114C202.371 57.3951 202.601 57.8555 202.798 58.2775L203.257 59.3518C203.52 59.9657 203.684 60.311 203.717 60.3493C203.946 60.733 204.176 60.9248 204.439 60.9248V61.3085H200.336V60.9248C200.5 60.9248 200.631 60.8865 200.73 60.7714C200.828 60.6563 200.894 60.5412 200.894 60.3493C200.894 60.004 200.73 59.5053 200.434 58.8914C200.255 58.5036 200.037 58.1621 199.825 57.831L199.825 57.8299L199.82 57.8223L199.819 57.8217C199.761 57.7301 199.703 57.6393 199.646 57.5486L199.252 57.9706V59.2751C199.252 59.8506 199.285 60.2342 199.318 60.4261C199.384 60.733 199.581 60.9248 199.843 60.9248V61.3085H196.232V60.9248C196.692 60.9248 196.922 60.5412 196.922 59.7355V55.6302C196.922 54.8245 196.692 54.4408 196.232 54.4408V54.0572H199.843V54.4408C199.613 54.4408 199.416 54.5559 199.351 54.8245C199.285 55.0163 199.252 55.2465 199.252 55.6302V56.9361ZM209.625 55.8985C209.668 55.7739 209.697 55.6494 209.721 55.5458C209.734 55.4899 209.745 55.4401 209.757 55.3997C209.789 55.2463 209.789 55.1312 209.789 54.9779V54.9776C209.789 54.7858 209.724 54.6707 209.625 54.5556C209.527 54.4789 209.396 54.4405 209.231 54.4405V54.0568H211.792V54.4405C211.464 54.4405 211.201 54.6707 210.971 55.0927C210.873 55.2462 210.741 55.6299 210.544 56.2821L208.509 62.229C208.247 62.958 207.984 63.4951 207.721 63.802C207.36 64.2241 206.868 64.4543 206.277 64.4543C206.014 64.4543 205.752 64.4159 205.489 64.3008C205.227 64.1857 204.964 64.0322 204.734 63.8404L205.424 61.922L205.686 62.0371V62.3824C205.686 62.5743 205.752 62.7661 205.916 62.9196C206.08 63.0731 206.244 63.1498 206.408 63.1498C206.737 63.1498 206.999 62.958 207.229 62.6127C207.426 62.2673 207.524 61.8837 207.524 61.4616C207.524 61.1931 207.459 60.8478 207.36 60.5025C207.336 60.4463 207.308 60.3695 207.272 60.2722L207.272 60.272C207.209 60.1035 207.124 59.8734 206.999 59.5817L205.358 55.6683C205.161 55.2078 205.03 54.9393 204.964 54.8242C204.767 54.5556 204.537 54.4021 204.275 54.4021V54.0185H208.345V54.4021C208.181 54.4021 208.017 54.4405 207.918 54.4789C207.82 54.5556 207.754 54.6707 207.754 54.8242C207.754 54.8804 207.772 54.9571 207.794 55.0544C207.802 55.09 207.811 55.1284 207.82 55.1695C207.839 55.2608 207.871 55.3385 207.899 55.4107C207.919 55.4599 207.938 55.5065 207.951 55.5531L208.903 58.3156L209.625 55.8985ZM218.98 60.6559C218.915 60.5792 218.783 60.4257 218.619 60.1572L216.715 57.0495L217.733 55.5532C217.963 55.1695 218.16 54.9393 218.291 54.8242C218.488 54.6323 218.751 54.5172 219.046 54.4405V54.0568H216.683V54.4405C216.781 54.4405 216.88 54.4405 216.945 54.4789C217.011 54.5172 217.044 54.594 217.044 54.7091C217.044 54.8625 216.978 55.0927 216.814 55.3613C216.715 55.5532 216.584 55.745 216.453 55.9368L216.256 56.2054L215.895 55.5148C215.796 55.323 215.698 55.1311 215.665 55.0544C215.661 55.0397 215.657 55.0257 215.653 55.0122C215.648 54.9973 215.644 54.9831 215.639 54.9695C215.617 54.8982 215.599 54.842 215.599 54.7858C215.599 54.6707 215.632 54.5556 215.731 54.5172C215.801 54.4626 215.871 54.4469 215.953 54.4285C215.986 54.421 216.021 54.4132 216.059 54.4021V54.0185H212.12V54.4021C212.35 54.4021 212.579 54.5556 212.809 54.8242C212.842 54.8625 212.891 54.9488 212.965 55.0782L212.965 55.0784C213.039 55.2079 213.137 55.3805 213.269 55.5915L214.418 57.6633L213.203 59.4666C212.875 59.9653 212.645 60.2723 212.547 60.3874C212.251 60.6943 211.956 60.8861 211.66 60.9629V61.3465H214.089V60.9629C213.958 60.9629 213.86 60.9245 213.794 60.8478L213.794 60.8477C213.761 60.771 213.728 60.6943 213.728 60.6176C213.728 60.4641 213.761 60.3106 213.86 60.1188C213.884 60.0325 213.946 59.9462 214.03 59.8275C214.059 59.7879 214.089 59.7447 214.122 59.6968L214.91 58.5458L215.731 60.0421C215.769 60.132 215.808 60.2087 215.839 60.2722L215.84 60.2725C215.862 60.3174 215.881 60.3557 215.895 60.3874C215.928 60.4641 215.96 60.5408 215.96 60.6559C215.96 60.7327 215.928 60.8094 215.862 60.8478C215.796 60.8861 215.698 60.9245 215.599 60.9245V61.3082H219.473V60.9245C219.309 60.9245 219.145 60.8478 218.98 60.6559ZM220.458 55.5915C220.458 54.7858 220.228 54.4021 219.768 54.4021V54.0185H223.379V54.4021C223.149 54.4021 222.985 54.4789 222.92 54.6707C222.821 54.8626 222.788 55.1695 222.788 55.5915V56.2821H224.495V55.5915C224.495 55.1695 224.462 54.8626 224.364 54.6707C224.265 54.4789 224.134 54.4021 223.904 54.4021V54.0185H227.515V54.4021C227.056 54.4021 226.826 54.7858 226.826 55.5915V59.6968C226.826 60.5025 227.056 60.8861 227.515 60.8861V61.2698H223.904V60.8861C224.134 60.8861 224.298 60.8094 224.364 60.6176C224.462 60.4257 224.495 60.1188 224.495 59.7351V57.2413H222.788V59.7351C222.788 60.1572 222.821 60.4641 222.92 60.6176C223.018 60.8094 223.149 60.8861 223.379 60.8861V61.2698H219.768V60.8861C220.228 60.8861 220.458 60.5025 220.458 59.6968V55.5915ZM232.669 56.2436V56.4738L230.568 56.9726C230.568 56.4354 230.634 56.0134 230.798 55.6681C230.995 55.2077 231.29 54.9775 231.651 54.9775C231.947 54.9775 232.176 55.131 232.373 55.3612C232.57 55.5914 232.669 55.8983 232.669 56.2436ZM231.224 59.5048C230.929 59.0827 230.732 58.5456 230.666 57.855L235.262 56.7807C235.098 55.8216 234.704 55.0926 234.08 54.5555C233.489 54.0951 232.767 53.8649 231.881 53.8649C230.831 53.8649 229.944 54.1718 229.255 54.824C228.5 55.5146 228.106 56.4354 228.106 57.6248C228.106 58.2387 228.205 58.8142 228.434 59.3129C228.664 59.8117 228.96 60.2721 229.386 60.6174C229.747 60.9244 230.141 61.1162 230.601 61.2697C231.06 61.3848 231.52 61.4615 232.012 61.4615C232.275 61.4615 232.538 61.4231 232.8 61.3848L233.588 61.2697L233.851 61.2313C233.949 61.2313 234.015 61.2313 234.113 61.308C234.146 61.3464 234.179 61.3848 234.244 61.4231L235.032 58.6223L234.77 58.5072C234.573 59.0444 234.277 59.4664 233.883 59.7733C233.489 60.0803 233.063 60.2337 232.57 60.2337C232.012 60.2337 231.553 60.0035 231.224 59.5048Z" fill="#FF6400"/>
</svg>
