<svg width="174" height="50" viewBox="0 0 174 50" fill="none" xmlns="http://www.w3.org/2000/svg">
<path d="M9.20603 11.2858C9.20603 9.8572 9.0609 8.95243 8.77064 8.47624C8.48038 8.00005 7.99661 7.71434 7.31934 7.6191V7.33339H14.2372V7.6191C13.6083 7.66672 13.1246 7.95243 12.8343 8.38101C12.544 8.80958 12.3505 9.71434 12.3505 11.0953V14.762L14.8177 12.6667C16.1239 11.5239 17.0915 10.6191 17.6236 10.0001C18.3009 9.23815 18.6395 8.66672 18.6395 8.28577C18.6395 8.00005 18.5911 7.85719 18.446 7.76196C18.3009 7.66672 18.1074 7.6191 17.8655 7.57148V7.28577H24.8317V7.6191C23.8642 7.6191 22.8967 7.95243 21.9291 8.57148C21.6872 8.71434 20.8648 9.42862 19.4619 10.5715L17.3333 12.4286C18.7363 13.8096 19.9941 15.381 21.0583 17.1429C22.0743 18.762 22.945 20.6191 23.7191 22.6191L24.2512 24.0001C24.6382 25.0001 24.8801 25.5715 25.0252 25.762C25.4123 26.4286 25.896 26.762 26.4766 26.8572V27.1429H20.1392V26.8572C20.8165 26.762 21.1551 26.381 21.1551 25.6667C21.1551 24.9048 20.9132 23.9048 20.3811 22.6191C19.9941 21.7143 19.5587 20.7143 19.0265 19.762C18.4944 18.762 17.9139 17.8572 17.285 17.0001C16.6561 16.1429 15.9788 15.2381 15.1564 14.3334L12.3505 16.6667V23.2382C12.3505 24.4286 12.4473 25.1905 12.5924 25.6667C12.8827 26.4286 13.4148 26.8572 14.2372 26.9524V27.2382H7.31934V26.9524C8.14174 26.8096 8.67389 26.381 8.91577 25.7143C9.10928 25.2858 9.15765 24.5239 9.15765 23.4762V11.2858H9.20603Z" fill="#FF6400"/>
<path d="M36.0071 15.9048C36.1522 15.4762 36.2973 15.0476 36.3941 14.6191C36.5392 14.1905 36.5876 13.8572 36.5876 13.5715C36.5876 13.2857 36.4908 13.0476 36.3457 12.9048C36.2006 12.7619 35.9103 12.6191 35.5233 12.6191V12.381H39.9256V12.6667C39.3451 12.7619 38.9097 13.0953 38.5227 13.6667C38.3775 13.9524 38.1357 14.5238 37.8454 15.381L33.3947 28.8096C32.7175 30.8572 31.9918 32.1905 31.121 32.8572C30.3954 33.4286 29.5246 33.7143 28.4119 33.7143C27.8798 33.7143 27.396 33.6191 26.9122 33.4286C26.4285 33.2381 25.9931 32.9524 25.5577 32.6191L27.2025 28.5238L27.4444 28.6667C27.396 28.9048 27.3476 29.1429 27.3476 29.381C27.3476 30 27.4928 30.5238 27.8314 31C28.1217 31.4286 28.557 31.6667 29.0892 31.6667C29.9116 31.6667 30.5889 31.2381 31.0726 30.381C31.4597 29.6667 31.7015 28.8096 31.7015 27.8096C31.7015 27.1429 31.5564 26.381 31.2178 25.4762C31.121 25.1429 30.7824 24.381 30.2986 23.1905L26.9122 15.1429C26.5736 14.2857 26.3317 13.7619 26.1382 13.4762C25.7512 12.9048 25.3158 12.6191 24.832 12.6191V12.381H30.6373V12.6667C30.2986 12.7143 30.0567 12.8096 29.9116 12.9524C29.7665 13.0953 29.7181 13.3334 29.7181 13.5715C29.7181 13.8096 29.7665 14.0476 29.9116 14.381C30.0567 14.7143 30.1051 14.9524 30.2019 15.1429L33.4431 23.4762L36.0071 15.9048Z" fill="#FF6400"/>
<path d="M52.9386 24.8572C53.2289 25.2857 53.5191 25.7143 53.8094 26.1429C54.1964 26.6191 54.6318 26.9048 55.0672 26.9524V27.2381H49.1168V26.9524C49.6974 26.8572 49.9876 26.6191 49.9876 26.2381C49.9876 25.9524 49.8425 25.5238 49.5039 25C49.2136 24.5715 49.0201 24.2381 48.875 24.0476L46.698 20.6667L44.6662 23.3334C43.5051 24.8572 42.9246 25.8572 42.9246 26.2857C42.9246 26.6667 43.2149 26.8572 43.7954 26.9524V27.2381H39.3447V26.9524C39.6834 26.8572 40.022 26.7143 40.2639 26.5238C40.5541 26.2857 40.9895 25.8095 41.5701 25L45.8756 19.4762L43.4568 15.8572C42.5376 14.4762 42.0055 13.6667 41.8119 13.4762C41.3282 12.9524 40.8928 12.7143 40.5058 12.7143V12.381H46.698V12.6667C46.0691 12.7143 45.7305 13 45.7305 13.4286C45.7305 13.6667 45.8272 14 46.0207 14.381C46.1659 14.6667 46.3594 15 46.6496 15.381L47.7139 17.0476L49.0201 15.2857C49.4555 14.7143 49.6974 14.3334 49.7457 14.1905C49.9876 13.8096 50.0844 13.4762 50.0844 13.1905C50.0844 12.8096 49.7941 12.6191 49.2136 12.6191V12.381H54.0513V12.6667C53.374 12.7143 52.6967 13.0953 51.9711 13.8572C51.7776 14.0476 51.2454 14.7143 50.3746 15.8572L48.4396 18.2857L52.9386 24.8572Z" fill="#FF6400"/>
<path d="M67.4033 18.5715H60.5822V23.4762C60.5822 24.9048 60.7273 25.8095 60.9692 26.2381C61.2595 26.6667 61.6949 26.9048 62.2754 26.9048V27.1905H55.8896V26.9048C56.6637 26.9048 57.1474 26.5238 57.3893 25.8095C57.5345 25.3334 57.6312 24.5715 57.6312 23.4762V16.0476C57.6312 14.6667 57.4861 13.7143 57.2442 13.2857C56.9539 12.8572 56.5185 12.6191 55.938 12.6191V12.381H62.3238V12.6667C61.5497 12.6667 61.066 13.0476 60.8241 13.7619C60.679 14.2381 60.5822 15 60.5822 16.0953V17.2857H67.4033V16.0953C67.4033 14.7143 67.2582 13.7619 67.0163 13.3334C66.726 12.9048 66.2907 12.6667 65.7101 12.6667V12.381H72.0959V12.6667C71.3218 12.6667 70.8381 13.0476 70.5962 13.7619C70.4511 14.2381 70.3543 15 70.3543 16.0953V23.5238C70.3543 24.9048 70.4994 25.8572 70.7413 26.2857C71.0316 26.7143 71.467 26.9524 72.0475 26.9524V27.2381H65.6618V26.9524C66.4358 26.9524 66.9196 26.5715 67.1614 25.8572C67.3066 25.381 67.4033 24.6191 67.4033 23.5238V18.5715Z" fill="#FF6400"/>
<path d="M85.0127 16L78.1916 22.1905V23.5238C78.1916 24.9048 78.3367 25.8572 78.5786 26.2857C78.8689 26.7143 79.3042 26.9524 79.8848 26.9524V27.2381H73.499V26.9524C74.2731 26.9048 74.7568 26.5238 74.9987 25.7619C75.1438 25.3334 75.2406 24.5715 75.2406 23.5238V16.0476C75.2406 14.9524 75.1922 14.2381 75.0471 13.8096C74.8052 13.0476 74.2731 12.6667 73.499 12.6191V12.381H79.8848V12.6667C79.1107 12.6667 78.627 13.0476 78.3851 13.7619C78.24 14.2381 78.1432 15 78.1432 16.0953V20.4762L84.9643 14.2857C84.916 13.9524 84.8676 13.7143 84.7708 13.5238C84.4806 13 83.9484 12.6667 83.2228 12.6191V12.381H89.6085V12.6667C88.8345 12.6667 88.3507 13.0476 88.1088 13.7619C87.9637 14.2381 87.867 15 87.867 16.0953V23.5238C87.867 24.9048 88.0121 25.8572 88.254 26.2857C88.5442 26.7143 88.9796 26.9524 89.5601 26.9524V27.2381H83.1744V26.9524C83.9484 26.9048 84.4322 26.5238 84.6741 25.7619C84.8192 25.3334 84.916 24.5715 84.916 23.5238V16H85.0127Z" fill="#FF6400"/>
<path d="M108.136 27.4762C107.991 27.4286 107.798 27.4286 107.556 27.4286H107.169L103.686 27.6191C101.992 27.6191 100.493 27.4286 99.2349 27.0477C97.7352 26.6191 96.429 25.9048 95.268 24.9048C94.0586 23.8572 93.091 22.5715 92.4621 21.0953C91.8332 19.6191 91.543 18.0477 91.543 16.3334C91.543 14.9524 91.7849 13.6667 92.2686 12.4286C92.7524 11.1905 93.478 10.1905 94.3972 9.33338C95.3647 8.52386 96.429 7.90481 97.6384 7.57148C98.8479 7.19052 100.154 7.04767 101.557 7.04767L104.75 7.33338L105.669 7.42862C105.959 7.42862 106.201 7.381 106.346 7.28576C106.54 7.19052 106.685 7.04767 106.782 6.80957L108.088 12.4762L107.846 12.5715C107.314 11.3334 106.491 10.381 105.33 9.66671C104.169 9.00005 102.912 8.61909 101.509 8.61909C100.493 8.61909 99.6219 8.76195 98.8479 9.04767C98.0738 9.33338 97.3966 9.85719 96.816 10.6191C96.1871 11.381 95.7517 12.1905 95.4131 13.1429C95.0745 14.0953 94.9293 15.0953 94.9293 16.0953C94.9293 18.8096 95.7034 21.0953 97.2998 23.0001C98.9446 25.0001 101.073 26.0001 103.637 26.0001C105.088 26.0001 106.346 25.5715 107.411 24.762C108.475 23.9524 109.346 22.8096 109.975 21.3334L110.265 21.4762L108.136 27.4762Z" fill="#FF6400"/>
<path d="M122.553 16L115.732 22.1905V23.5238C115.732 24.9048 115.877 25.8572 116.119 26.2857C116.409 26.7143 116.844 26.9524 117.425 26.9524V27.2381H111.039V26.9524C111.813 26.9048 112.297 26.5238 112.539 25.7619C112.684 25.3334 112.781 24.5715 112.781 23.5238V16.0476C112.781 14.9524 112.732 14.2381 112.587 13.8096C112.345 13.0476 111.813 12.6667 111.039 12.6191V12.381H117.473V12.6667C116.699 12.6667 116.215 13.0476 115.974 13.7619C115.828 14.2381 115.732 15 115.732 16.0953V20.4762L122.553 14.2857C122.504 13.9524 122.456 13.7143 122.359 13.5238C122.069 13 121.537 12.6667 120.811 12.6191V12.381H127.197V12.6667C126.423 12.6667 125.939 13.0476 125.697 13.7619C125.552 14.2381 125.455 15 125.455 16.0953V23.5238C125.455 24.9048 125.6 25.8572 125.842 26.2857C126.133 26.7143 126.568 26.9524 127.149 26.9524V27.2381H120.763V26.9524C121.537 26.9048 122.021 26.5238 122.262 25.7619C122.408 25.3334 122.504 24.5715 122.504 23.5238V16H122.553Z" fill="#FF6400"/>
<path d="M136.485 23.5238C136.485 24.619 136.582 25.4286 136.727 25.8095C137.018 26.5714 137.55 26.9047 138.372 26.9047V27.1905H131.696V26.9047C132.518 26.9047 133.051 26.5238 133.293 25.7619C133.486 25.2857 133.534 24.5238 133.534 23.4762V13.8095C131.841 13.8095 130.583 14.1428 129.713 14.8095C128.987 15.3809 128.31 16.4762 127.729 18.0476L127.487 17.9524L128.89 12.0476C128.987 12.1905 129.132 12.3333 129.326 12.3809C129.519 12.4286 129.761 12.4762 130.051 12.4762H130.583H139.388H139.92C140.21 12.4762 140.452 12.4286 140.646 12.3809C140.839 12.3333 140.984 12.2381 141.081 12.0476L142.484 17.9524L142.242 18.0476C141.662 16.5238 140.984 15.4286 140.259 14.8571C139.388 14.1428 138.13 13.8095 136.437 13.8095V23.5238H136.485Z" fill="#FF6400"/>
<path d="M154.288 16L147.467 22.1905V23.5238C147.467 24.9048 147.612 25.8572 147.854 26.2857C148.144 26.7143 148.58 26.9524 149.16 26.9524V27.2381H142.774V26.9524C143.548 26.9048 144.032 26.5238 144.274 25.7619C144.419 25.3334 144.516 24.5715 144.516 23.5238V16.0476C144.516 14.9524 144.468 14.2381 144.322 13.8096C144.081 13.0476 143.548 12.6667 142.774 12.6191V12.381H149.16V12.6667C148.386 12.6667 147.902 13.0476 147.66 13.7619C147.515 14.2381 147.419 15 147.419 16.0953V20.4762L154.24 14.2857C154.191 13.9524 154.143 13.7143 154.046 13.5238C153.756 13 153.224 12.6667 152.498 12.6191V12.381H158.884V12.6667C158.11 12.6667 157.626 13.0476 157.384 13.7619C157.239 14.2381 157.142 15 157.142 16.0953V23.5238C157.142 24.9048 157.287 25.8572 157.529 26.2857C157.82 26.7143 158.255 26.9524 158.835 26.9524V27.2381H152.45V26.9524C153.224 26.9048 153.708 26.5238 153.949 25.7619C154.095 25.3334 154.191 24.5715 154.191 23.5238V16H154.288Z" fill="#FF6400"/>
<path d="M164.012 12.2858C162.803 12.2858 161.739 11.2382 161.739 9.95246C161.739 8.61912 162.803 7.61912 164.012 7.61912C165.222 7.61912 166.238 8.66674 166.238 9.95246C166.286 11.2382 165.222 12.2858 164.012 12.2858ZM164.012 12.7144C165.512 12.7144 166.673 11.4763 166.673 9.95246C166.673 8.38103 165.512 7.19055 164.012 7.19055C162.513 7.19055 161.352 8.42865 161.352 9.95246C161.352 11.4763 162.513 12.7144 164.012 12.7144ZM164.399 10.0477C164.931 10.0477 165.318 9.8096 165.318 9.23817C165.318 8.5715 164.835 8.42865 164.303 8.42865H163.045V11.4286H163.432V10.0477H163.916L164.786 11.4286H165.27L164.399 10.0477ZM163.432 9.61912V8.85722H164.206C164.496 8.85722 164.883 8.90484 164.883 9.23817C164.883 9.71436 164.254 9.66674 163.916 9.66674H163.432V9.61912Z" fill="#FF6400"/>
<path d="M12.4487 41.5239C12.4003 41.4763 12.3519 41.4287 12.3036 41.4287C12.2552 41.4287 12.2068 41.3811 12.1101 41.3811H12.0133L10.8523 41.4763C9.88473 41.4763 9.06233 41.2382 8.43343 40.7144C7.70778 40.143 7.36914 39.3811 7.36914 38.3811C7.36914 37.4763 7.6594 36.8096 8.23992 36.2858C8.77207 35.8096 9.49772 35.5715 10.3685 35.5715C10.562 35.5715 10.7555 35.5715 10.949 35.6192C11.1425 35.6192 11.336 35.6668 11.5295 35.7144C11.5779 35.7144 11.6263 35.7144 11.6747 35.762C11.7231 35.762 11.7714 35.762 11.8198 35.762C12.0133 35.762 12.1584 35.6668 12.2068 35.5239L12.6906 37.9525L12.4971 38.0001C12.3519 37.5239 12.1101 37.143 11.8198 36.8573C11.4812 36.5239 11.0942 36.3335 10.6588 36.3335C10.175 36.3335 9.78798 36.5239 9.49772 36.9525C9.25583 37.3334 9.1107 37.762 9.1107 38.2858C9.1107 38.5715 9.15908 38.9049 9.20746 39.1906C9.30421 39.4763 9.40097 39.762 9.59447 40.0001C9.78798 40.2382 9.98149 40.4287 10.2717 40.6192C10.562 40.762 10.8523 40.8573 11.1425 40.8573C11.5295 40.8573 11.8198 40.762 12.1101 40.5715C12.4003 40.3811 12.5938 40.0954 12.739 39.7144L12.9325 39.762L12.4487 41.5239Z" fill="#FF6400"/>
<path d="M16.124 40.2381C16.124 40.5238 16.124 40.6667 16.124 40.7619C16.1724 41 16.2691 41.1429 16.511 41.1429V41.3333H14.1405V41.1429C14.2857 41.1429 14.3824 41.0952 14.4792 41C14.5759 40.9048 14.5759 40.6667 14.5759 40.2857V37.7143C14.2373 37.7143 13.947 37.8095 13.7051 38.0476C13.4633 38.2381 13.2698 38.5714 13.173 38.9524L12.9795 38.9048L13.3665 37.0476C13.4149 37.0952 13.4633 37.1428 13.5116 37.1428C13.56 37.1428 13.6568 37.1905 13.8019 37.1905H13.947H14.0438H16.511H16.7529C16.8496 37.1905 16.9948 37.1905 17.0915 37.1428C17.1883 37.1428 17.2367 37.0952 17.285 37.0476L17.672 38.9048L17.4785 38.9524C17.3334 38.5714 17.1399 38.2381 16.9464 38.0476C16.7045 37.8095 16.4626 37.7143 16.124 37.7143V40.2381Z" fill="#FF6400"/>
<path d="M18.1561 38.0477C18.1561 37.5715 18.011 37.3334 17.7207 37.3334V37.1429H20.0912V37.3334C19.8009 37.3334 19.7042 37.5715 19.7042 38.0477V39.0953L20.8168 38.0477C20.8168 37.8096 20.7684 37.6191 20.7201 37.5239C20.6717 37.4287 20.5749 37.381 20.4298 37.381V37.1429H22.8003V37.3334C22.51 37.3334 22.3649 37.5715 22.3649 38.0477V40.4287C22.3649 40.9048 22.51 41.0953 22.8003 41.0953V41.2858H20.4298V41.0953C20.5749 41.0953 20.6717 41.0477 20.7201 40.9525C20.7684 40.8572 20.8168 40.6667 20.8168 40.4287V38.762L19.7042 39.8096V40.4287C19.7042 40.9048 19.8493 41.0953 20.0912 41.0953V41.2858H17.7207V41.0953C18.011 41.0953 18.1561 40.8572 18.1561 40.4287V38.0477Z" fill="#FF6400"/>
<path d="M24.6864 37.9048C24.4445 38.1429 24.2026 38.5239 24.0575 39.0001C23.9123 39.4763 23.8156 39.9525 23.8156 40.4763C23.8156 40.6191 23.8639 40.762 24.0091 40.9049C24.1542 41.0477 24.3961 41.1429 24.638 41.1429V41.3334H22.9932V41.2382C22.9932 40.7144 23.0415 40.2382 23.1383 39.8096C23.3318 39.0001 23.6704 38.3334 24.2026 37.7144C24.251 37.6668 24.251 37.6191 24.251 37.5715C24.251 37.5239 24.251 37.5239 24.251 37.4763C24.251 37.381 24.2026 37.3334 24.0575 37.3334H23.9607V37.1429H27.589V37.3334C27.3955 37.3334 27.2987 37.4287 27.2019 37.6191C27.1536 37.762 27.1536 37.9525 27.1536 38.2382V40.2382C27.1536 40.5239 27.1536 40.762 27.2019 40.8572C27.2503 41.0477 27.3955 41.1429 27.589 41.1429V41.3334H25.2185V41.1429C25.3636 41.1429 25.4604 41.0953 25.5088 41.0001C25.5571 40.9048 25.6055 40.6668 25.6055 40.2858V38.2858C25.6055 38.0477 25.6055 37.8572 25.5571 37.762C25.5088 37.6668 25.4604 37.6191 25.3153 37.6191C25.1701 37.6191 25.025 37.6668 24.9282 37.7144C24.9282 37.7144 24.7831 37.8096 24.6864 37.9048Z" fill="#FF6400"/>
<path d="M28.0244 41.3334V41.143C28.1695 41.143 28.2663 41.0953 28.3631 40.9525C28.4598 40.8572 28.4598 40.6191 28.4598 40.2382V38.2382C28.4598 37.9525 28.4598 37.762 28.4114 37.6191C28.3631 37.4287 28.2179 37.3334 28.0244 37.3334V37.1429H30.4916V37.3334C30.2497 37.3334 30.153 37.4287 30.0562 37.6191C30.0079 37.7144 30.0079 37.9525 30.0079 38.2382V38.5239C30.7819 38.5239 31.3624 38.6191 31.8462 38.8572C32.4267 39.1429 32.6686 39.5239 32.6686 40.0953C32.6686 40.4763 32.4751 40.8096 32.0397 41.0477C31.6527 41.2858 31.0722 41.3811 30.3465 41.3811H28.0244V41.3334ZM30.3465 40.8572C30.54 40.8572 30.7335 40.762 30.8786 40.6191C31.0238 40.4763 31.0722 40.2858 31.0722 40.0477C31.0722 39.762 30.9754 39.5239 30.7819 39.3334C30.5884 39.0953 30.2981 39.0001 29.9595 39.0001V40.2858C29.9595 40.5239 29.9595 40.6668 30.0562 40.762C30.1046 40.8096 30.2014 40.8572 30.3465 40.8572Z" fill="#FF6400"/>
<path d="M39.8773 37.9525C39.8773 38.1429 39.7806 38.2858 39.5871 38.4763C39.442 38.6191 39.2484 38.7144 39.0066 38.8096C39.442 38.8572 39.7806 39.0001 40.0225 39.1906C40.2644 39.381 40.4095 39.6668 40.4095 39.9525C40.4095 40.4287 40.1676 40.762 39.7322 41.0001C39.3452 41.2382 38.8131 41.3334 38.1842 41.3334H35.5234V41.1429C35.7169 41.1429 35.8137 41.0477 35.9105 40.8572C35.9588 40.7144 35.9588 40.5239 35.9588 40.2382V38.2382C35.9588 37.9525 35.9588 37.762 35.9105 37.6191C35.8621 37.4287 35.7169 37.3334 35.5234 37.3334V37.1429H38.039C38.6196 37.1429 39.0066 37.1906 39.2001 37.2382C39.6838 37.3334 39.8773 37.5715 39.8773 37.9525ZM38.2809 38.1429C38.2809 38.0001 38.2325 37.8572 38.1842 37.762C38.1358 37.6668 38.039 37.6191 37.8939 37.6191C37.7488 37.6191 37.652 37.6668 37.6036 37.7144C37.5553 37.8096 37.5069 37.9525 37.5069 38.2382V38.8096L37.7971 38.7144C37.9423 38.6668 38.039 38.6191 38.1358 38.4763C38.2325 38.381 38.2809 38.2858 38.2809 38.1429ZM37.5069 39.3334V40.1906C37.5069 40.4287 37.5553 40.6191 37.6036 40.6668C37.652 40.762 37.7971 40.8096 37.9907 40.8096C38.2325 40.8096 38.426 40.7144 38.5712 40.5715C38.7163 40.4287 38.7647 40.2382 38.7647 39.9525C38.7647 39.7144 38.7163 39.5239 38.6196 39.381C38.5228 39.2382 38.3777 39.1429 38.2325 39.0477L37.5069 39.3334Z" fill="#FF6400"/>
<path d="M45.9724 41.3334V41.1429C46.1659 41.1429 46.2627 41.0477 46.311 40.8572C46.3594 40.7144 46.3594 40.5239 46.3594 40.1906V39.4287L46.1175 39.1906C45.9724 39.381 45.8273 39.6191 45.6821 40.0001C45.537 40.3334 45.4403 40.6191 45.4403 40.8096C45.4403 41.0477 45.537 41.1429 45.7789 41.1429V41.3334H43.1182V41.1429C43.2633 41.1429 43.4568 41.0477 43.6019 40.8096C43.6019 40.8096 43.6987 40.6191 43.8922 40.2382L44.1825 39.6191C44.2792 39.381 44.4243 39.1429 44.6178 38.9048C44.763 38.7144 44.9081 38.4763 45.1016 38.2382L44.9081 38.0001C44.6662 37.8096 44.4243 37.6668 44.1825 37.5239C43.8922 37.381 43.6503 37.3334 43.36 37.3334V37.1429H45.6821V37.3334C45.5854 37.3334 45.537 37.3334 45.4886 37.381C45.3919 37.4287 45.3919 37.4763 45.3919 37.5715C45.3919 37.6191 45.4403 37.762 45.5854 37.9525C45.6821 38.0477 45.7789 38.1429 45.8756 38.2858L46.3594 38.8572V38.0477C46.3594 37.8096 46.3594 37.6668 46.311 37.5715C46.2627 37.4287 46.1659 37.3334 45.9724 37.3334V37.1429H48.2945V37.3334C48.1494 37.3334 48.0042 37.4287 47.9559 37.5715C47.9075 37.6668 47.9075 37.8096 47.9075 38.0477V38.8572L48.3912 38.2858C48.5364 38.1429 48.6815 37.9525 48.7299 37.8572C48.8266 37.7144 48.875 37.6668 48.875 37.6191C48.875 37.5239 48.8266 37.4763 48.7783 37.4287C48.7299 37.381 48.6331 37.381 48.5847 37.381V37.1429H50.9068V37.3334C50.6166 37.3334 50.3747 37.381 50.0844 37.5239C49.7942 37.6668 49.5523 37.8096 49.3588 38.0001L49.2137 38.1429C49.4072 38.4287 49.6007 38.6668 49.6974 38.8096C49.8425 39.0477 49.9877 39.2858 50.1328 39.5715L50.4231 40.1906C50.5682 40.5239 50.665 40.7144 50.7133 40.762C50.8585 41.0001 51.0036 41.0953 51.1971 41.0953V41.2858H48.5847V41.0953C48.7783 41.0953 48.875 41.0001 48.875 40.762C48.875 40.5715 48.7783 40.2858 48.6331 39.9525C48.488 39.6191 48.3429 39.3334 48.1494 39.1429L47.9075 39.381V40.1429C47.9075 40.5715 47.9559 40.8096 48.0042 40.9049C48.0526 41.0001 48.1494 41.0477 48.2945 41.0477V41.2382H45.9724V41.3334Z" fill="#FF6400"/>
<path d="M51.6805 38.0477C51.6805 37.5715 51.5354 37.3334 51.2451 37.3334V37.1429H53.6156V37.3334C53.3253 37.3334 53.2286 37.5715 53.2286 38.0477V39.0953L54.3412 38.0477C54.3412 37.8096 54.2929 37.6191 54.2445 37.5239C54.1961 37.4287 54.0993 37.381 53.9542 37.381V37.1429H56.3247V37.3334C56.0344 37.3334 55.8893 37.5715 55.8893 38.0477V40.4287C55.8893 40.9048 56.0344 41.0953 56.3247 41.0953V41.2858H53.9542V41.0953C54.0993 41.0953 54.1961 41.0477 54.2445 40.9525C54.2929 40.8572 54.3412 40.6667 54.3412 40.4287V38.762L53.2286 39.8096V40.4287C53.2286 40.9048 53.3737 41.0953 53.6156 41.0953V41.2858H51.2451V41.0953C51.5354 41.0953 51.6805 40.8572 51.6805 40.4287V38.0477Z" fill="#FF6400"/>
<path d="M59.5663 38.9048C59.9533 39 60.2919 39.1429 60.4855 39.2858C60.7273 39.4762 60.8725 39.7619 60.8725 40.0477C60.8725 40.4762 60.679 40.8096 60.2436 41.0477C59.8566 41.2858 59.2277 41.4286 58.4536 41.4286C58.3569 41.4286 58.1634 41.4286 57.9215 41.381C57.6796 41.3334 57.4861 41.3334 57.3893 41.3334C57.1958 41.3334 57.0507 41.3334 56.9056 41.381L56.8088 41.4286L56.5186 40.0953L56.7121 40.0477L56.7604 40.0953C56.8572 40.2858 57.0991 40.4762 57.4377 40.6191C57.7764 40.7619 58.0666 40.8572 58.4053 40.8572C58.6955 40.8572 58.889 40.7619 59.0825 40.6191C59.2277 40.4762 59.3244 40.2858 59.3244 40C59.3244 39.7143 59.2277 39.5238 59.0341 39.4286C58.8406 39.2858 58.4536 39.1905 57.9699 39.1905H57.8731V38.7143H57.9699C58.3085 38.7143 58.5988 38.6667 58.6955 38.5715C58.8406 38.4762 58.889 38.2858 58.889 38.0477C58.889 37.9048 58.8406 37.7619 58.7439 37.6667C58.6471 37.5715 58.502 37.5238 58.3569 37.5238C58.0666 37.5238 57.8247 37.6191 57.5828 37.7619C57.3893 37.9048 57.1475 38.0953 57.0023 38.381L56.9539 38.4286L56.7604 38.381L57.341 36.8572L57.4377 37C57.4861 37.0477 57.5345 37.0477 57.6312 37.0477C57.7764 37.0477 57.9215 37 58.0666 37C58.2117 37 58.3569 37 58.5504 37C59.276 37 59.7598 37.0953 60.0984 37.2381C60.4371 37.381 60.5822 37.6667 60.5822 37.9524C60.5822 38.1429 60.4855 38.3334 60.292 38.5238C60.0017 38.7143 59.8082 38.8572 59.5663 38.9048Z" fill="#FF6400"/>
<path d="M61.5018 38.0477C61.5018 37.5715 61.3567 37.3334 61.0664 37.3334V37.1429H63.4369V37.3334C63.2917 37.3334 63.195 37.381 63.1466 37.4763C63.0982 37.5715 63.0498 37.762 63.0498 38.0001V38.4287H64.1625V38.0001C64.1625 37.762 64.1141 37.5715 64.0658 37.4763C64.0174 37.381 63.9206 37.3334 63.7755 37.3334V37.1429H66.146V37.3334C65.8557 37.3334 65.7106 37.5715 65.7106 38.0477V40.4287C65.7106 40.9048 65.8557 41.0953 66.146 41.0953V41.2858H63.7755V41.0953C63.9206 41.0953 64.0174 41.0477 64.0658 40.9525C64.1141 40.8572 64.1625 40.6667 64.1625 40.4287V39.0001H63.0498V40.4287C63.0498 40.6667 63.0982 40.8572 63.1466 40.9525C63.195 41.0477 63.2917 41.0953 63.4369 41.0953V41.2858H61.0664V41.0953C61.3567 41.0953 61.5018 40.8572 61.5018 40.4287V38.0477Z" fill="#FF6400"/>
<path d="M66.8709 38.0477C66.8709 37.5715 66.7258 37.3334 66.4355 37.3334V37.1429H68.806V37.3334C68.5158 37.3334 68.419 37.5715 68.419 38.0477V39.0953L69.5317 38.0477C69.5317 37.8096 69.4833 37.6191 69.4349 37.5239C69.3865 37.4287 69.2898 37.381 69.1447 37.381V37.1429H71.5151V37.3334C71.2249 37.3334 71.0797 37.5715 71.0797 38.0477V40.4287C71.0797 40.9048 71.2249 41.0953 71.5151 41.0953V41.2858H69.1447V41.0953C69.2898 41.0953 69.3865 41.0477 69.4349 40.9525C69.4833 40.8572 69.5317 40.6667 69.5317 40.4287V38.762L68.419 39.8096V40.4287C68.419 40.9048 68.5641 41.0953 68.806 41.0953V41.2858H66.4355V41.0953C66.7258 41.0953 66.8709 40.8572 66.8709 40.4287V38.0477Z" fill="#FF6400"/>
<path d="M76.3529 40C76.3045 39.9047 76.2561 39.8571 76.1594 39.8095C76.0626 39.7619 75.9659 39.7619 75.8207 39.7619H75.6272H75.3854C75.2402 39.7619 75.0951 39.7619 74.9983 39.8095C74.9016 39.8571 74.8048 39.9047 74.7565 40L74.6113 39.9524L75.1919 38.5238C75.2402 38.619 75.2402 38.6667 75.337 38.6667C75.3854 38.7143 75.4821 38.7143 75.5305 38.7143H75.6756H76.1594C76.3529 38.7143 76.498 38.7143 76.5464 38.6667C76.5948 38.619 76.6915 38.5714 76.7399 38.5238L76.885 38.5714L76.3529 40Z" fill="#FF6400"/>
<path d="M82.1582 38.8096L82.7871 38.1906C83.0774 37.8572 83.2709 37.6668 83.2709 37.5239C83.2709 37.4287 83.2225 37.381 83.1741 37.381C83.0774 37.3334 83.029 37.3334 82.9322 37.3334V37.1429H85.3511V37.3334C85.0608 37.3334 84.8189 37.381 84.5287 37.5239C84.2384 37.6668 83.9965 37.8096 83.803 38.0001L83.6579 38.1429C83.8514 38.4287 84.0449 38.6668 84.1417 38.8096C84.2868 39.0477 84.4319 39.2858 84.577 39.5715L84.8673 40.1906C85.0608 40.5715 85.1576 40.762 85.1576 40.762C85.3027 41.0001 85.4478 41.0953 85.6413 41.0953V41.2858H82.9806V41.0953C83.0774 41.0953 83.1741 41.0477 83.2225 41.0001C83.2709 40.9525 83.3192 40.8572 83.3192 40.762C83.3192 40.5715 83.2225 40.2858 83.029 39.9048C82.8838 39.6191 82.6903 39.381 82.4968 39.1429L82.2549 39.381V40.1429C82.2549 40.4763 82.2549 40.7144 82.3033 40.8096C82.3517 41.0001 82.4485 41.0953 82.642 41.0953V41.2858H80.2715V41.0953C80.5617 41.0953 80.7069 40.8572 80.7069 40.381V38.0001C80.7069 37.5239 80.5617 37.2858 80.2715 37.2858V37.1429H82.642V37.3334C82.4968 37.3334 82.3517 37.4287 82.3033 37.5715C82.2549 37.6668 82.2549 37.8096 82.2549 38.0477V38.8096H82.1582Z" fill="#FF6400"/>
<path d="M86.319 41C86.0771 40.8095 85.8836 40.5714 85.7384 40.2857C85.5933 40 85.5449 39.6667 85.5449 39.3333C85.5449 38.619 85.7868 38.0476 86.319 37.619C86.8027 37.2381 87.3832 37 88.0605 37C88.7378 37 89.3183 37.1905 89.7537 37.5714C90.2375 37.9524 90.4793 38.5238 90.4793 39.2381C90.4793 39.9524 90.2375 40.4762 89.7537 40.9048C89.3183 41.2857 88.7378 41.4762 88.0605 41.4762C87.7702 41.4762 87.4316 41.4286 87.1414 41.3809C86.8027 41.2857 86.5608 41.1429 86.319 41ZM88.641 40.3333C88.6894 40.1905 88.7378 40.0476 88.7378 39.9048C88.7862 39.7143 88.7862 39.5714 88.7862 39.3809C88.7862 39.1429 88.7862 38.9524 88.7378 38.7619C88.6894 38.5714 88.641 38.381 88.5927 38.2381C88.5443 38.0952 88.4475 37.9524 88.3508 37.8571C88.254 37.7619 88.1089 37.7143 87.9638 37.7143C87.6735 37.7143 87.48 37.9048 87.3349 38.2381C87.2381 38.4762 87.1897 38.7619 87.1897 39.1429C87.1897 39.5238 87.2381 39.9048 87.3832 40.1905C87.5284 40.619 87.7702 40.8571 88.1089 40.8571C88.2056 40.8571 88.3508 40.8095 88.4475 40.7143C88.5443 40.5714 88.5926 40.4762 88.641 40.3333Z" fill="#FF6400"/>
<path d="M91.8822 40.1906C91.8822 40.5715 91.9306 40.8572 91.9789 40.9525C92.0757 41.0477 92.1725 41.1429 92.3176 41.1429V41.3334H90.7695V41.1429C90.963 41.0953 91.1082 41.0001 91.1565 40.8572C91.2049 40.762 91.2049 40.5715 91.2049 40.2382V38.2858C91.2049 37.9525 91.2049 37.762 91.1565 37.6668C91.1082 37.4763 90.963 37.381 90.7695 37.3334V37.1429H93.2367V37.3334C93.14 37.3334 93.0432 37.381 93.0432 37.5239C93.0432 37.6191 93.0916 37.762 93.2367 37.9048L93.7205 38.6191L94.2043 37.9048C94.301 37.762 94.3494 37.6191 94.3494 37.5239C94.3494 37.4287 94.301 37.381 94.2043 37.381V37.1429H96.3812V37.3334C96.1877 37.381 96.0426 37.4763 95.9942 37.6191C95.9458 37.7144 95.9458 37.9048 95.9458 38.1906V40.1429C95.9458 40.4763 95.9458 40.7144 95.9942 40.8096C96.0426 41.0001 96.1877 41.0953 96.3812 41.0953V41.2858H94.0108V41.0953C94.1559 41.0953 94.301 41.0477 94.3494 40.9049C94.3978 40.8096 94.3978 40.6668 94.3978 40.4287V40.1906V38.4287L93.0432 40.3334L91.7371 38.4287V40.1906H91.8822Z" fill="#FF6400"/>
<path d="M99.5739 36.5715C99.5739 36.0953 99.4288 35.9049 99.1385 35.9049V35.7144L101.122 35.5715V37.0477C101.17 37.0477 101.219 37.0477 101.364 37.0477C101.509 37.0477 101.557 37.0477 101.606 37.0477C102.283 37.0477 102.815 37.2382 103.251 37.6668C103.638 38.0953 103.879 38.6668 103.879 39.4287C103.879 39.7144 103.831 40.0477 103.686 40.2858C103.589 40.5715 103.396 40.8096 103.154 40.9525C102.912 41.143 102.718 41.2382 102.476 41.3334C102.235 41.3811 101.993 41.4287 101.654 41.4287L101.122 41.3811V42.2858C101.122 42.5239 101.17 42.6668 101.267 42.8096C101.364 42.9525 101.461 43.0001 101.654 43.0001V43.1906H99.0901V43.0001C99.2352 43.0001 99.3804 42.9525 99.4771 42.8096C99.5739 42.7144 99.6223 42.5239 99.6223 42.2858V41.3811L99.0417 41.4287C98.7515 41.4287 98.4612 41.3811 98.2193 41.3334C97.9774 41.2858 97.7356 41.143 97.5421 40.9525C97.3002 40.762 97.155 40.5239 97.0099 40.2858C96.8648 40.0477 96.8164 39.7144 96.8164 39.4287C96.8164 38.6668 97.0099 38.0953 97.4453 37.6668C97.8323 37.2382 98.4128 37.0477 99.0901 37.0477C99.1869 37.0477 99.2836 37.0477 99.332 37.0477C99.3804 37.0477 99.4771 37.0477 99.5739 37.0953V36.5715ZM99.5739 37.6192L99.4288 37.5715C99.1385 37.5715 98.8966 37.762 98.7031 38.0953C98.5096 38.4287 98.4612 38.8572 98.4612 39.2858C98.4612 39.7144 98.5096 40.0953 98.6547 40.3811C98.7999 40.6668 98.9934 40.8096 99.2352 40.8096C99.332 40.8096 99.4288 40.762 99.4771 40.6668C99.5255 40.5715 99.5739 40.3811 99.5739 40.143V37.6192ZM101.122 40.143C101.122 40.5715 101.219 40.8096 101.412 40.8096C101.654 40.8096 101.848 40.6668 101.993 40.3811C102.138 40.0953 102.186 39.762 102.186 39.2858C102.186 38.8096 102.089 38.4287 101.944 38.0953C101.751 37.762 101.557 37.5715 101.219 37.5715L101.074 37.6192V40.143H101.122Z" fill="#FF6400"/>
<path d="M104.992 41C104.75 40.8095 104.556 40.5714 104.411 40.2857C104.266 40 104.218 39.6667 104.218 39.3333C104.218 38.619 104.46 38.0476 104.992 37.619C105.476 37.2381 106.056 37 106.733 37C107.411 37 107.991 37.1905 108.427 37.5714C108.91 37.9524 109.152 38.5238 109.152 39.2381C109.152 39.9524 108.91 40.4762 108.427 40.9048C107.991 41.2857 107.411 41.4762 106.733 41.4762C106.443 41.4762 106.104 41.4286 105.814 41.3809C105.476 41.2857 105.185 41.1429 104.992 41ZM107.314 40.3333C107.362 40.1905 107.411 40.0476 107.411 39.9048C107.459 39.7143 107.459 39.5714 107.459 39.3809C107.459 39.1429 107.459 38.9524 107.411 38.7619C107.362 38.5714 107.314 38.381 107.266 38.2381C107.217 38.0952 107.12 37.9524 107.024 37.8571C106.927 37.7619 106.782 37.7143 106.637 37.7143C106.346 37.7143 106.153 37.9048 106.008 38.2381C105.911 38.4762 105.863 38.7619 105.863 39.1429C105.863 39.5238 105.911 39.9048 106.056 40.1905C106.201 40.619 106.443 40.8571 106.782 40.8571C106.879 40.8571 107.024 40.8095 107.12 40.7143C107.169 40.5714 107.217 40.4762 107.314 40.3333Z" fill="#FF6400"/>
<path d="M111.958 37.1429C112.345 37.1429 112.635 37.1906 112.926 37.2382C113.216 37.2858 113.458 37.4287 113.7 37.6191C113.942 37.8096 114.135 38.0953 114.28 38.381C114.425 38.6668 114.474 39.0001 114.474 39.3334C114.474 40.0001 114.232 40.5239 113.748 40.9525C113.555 41.1429 113.264 41.2382 112.926 41.3334C112.635 41.381 112.345 41.4287 112.006 41.4287C111.91 41.4287 111.813 41.4287 111.668 41.4287C111.571 41.4287 111.474 41.4287 111.378 41.381V42.2858C111.378 42.5239 111.426 42.6667 111.523 42.8096C111.619 42.9525 111.716 43.0001 111.91 43.0001V43.1906H109.346V43.0001C109.491 43.0001 109.636 42.9525 109.733 42.8096C109.829 42.7144 109.878 42.5239 109.878 42.2858V38.0001C109.878 37.5239 109.733 37.3334 109.442 37.3334V37.1429H111.958ZM111.426 40.1429C111.426 40.2382 111.426 40.3334 111.426 40.4287C111.426 40.5239 111.426 40.6191 111.474 40.6668C111.571 40.762 111.668 40.8096 111.813 40.8096C112.152 40.8096 112.442 40.6191 112.635 40.2858C112.78 40.0001 112.877 39.6668 112.877 39.2858C112.877 38.8572 112.78 38.4763 112.539 38.1429C112.297 37.8096 111.958 37.6668 111.523 37.6668H111.426V40.1429Z" fill="#FF6400"/>
<path d="M117.618 40.2381C117.618 40.5238 117.618 40.6667 117.618 40.7619C117.667 41 117.763 41.1429 118.005 41.1429V41.3333H115.635V41.1429C115.78 41.1429 115.877 41.0952 115.973 41C116.07 40.9048 116.07 40.6667 116.07 40.2857V37.7143C115.731 37.7143 115.441 37.8095 115.199 38.0476C114.957 38.2381 114.764 38.5714 114.667 38.9524L114.474 38.9048L114.861 37.0476C114.909 37.0952 114.957 37.1428 115.006 37.1428C115.054 37.1428 115.151 37.1905 115.248 37.1905H115.344H115.441H117.908H118.15C118.247 37.1905 118.392 37.1905 118.441 37.1428C118.537 37.1428 118.586 37.0952 118.634 37.0476L119.021 38.9048L118.828 38.9524C118.682 38.5714 118.489 38.2381 118.295 38.0476C118.054 37.8095 117.812 37.7143 117.473 37.7143V40.2381H117.618Z" fill="#FF6400"/>
<path d="M122.456 38.0477C122.456 37.5715 122.311 37.3334 122.021 37.3334V37.1429H124.391V37.3334C124.246 37.3334 124.149 37.381 124.101 37.4763C124.052 37.5715 124.004 37.762 124.004 38.0001V38.4287H125.117V38.0001C125.117 37.762 125.068 37.5715 125.02 37.4763C124.972 37.381 124.875 37.3334 124.73 37.3334V37.1429H127.1V37.3334C126.81 37.3334 126.665 37.5715 126.665 38.0477V40.4287C126.665 40.9048 126.81 41.0953 127.1 41.0953V41.2858H124.73V41.0953C124.875 41.0953 124.972 41.0477 125.02 40.9525C125.068 40.8572 125.117 40.6667 125.117 40.4287V39.0001H124.004V40.4287C124.004 40.6667 124.052 40.8572 124.101 40.9525C124.149 41.0477 124.246 41.0953 124.391 41.0953V41.2858H122.021V41.0953C122.311 41.0953 122.456 40.8572 122.456 40.4287V38.0477Z" fill="#FF6400"/>
<path d="M130.197 38.4762V38.3333C130.197 38.2381 130.197 38.1428 130.197 38.0952C130.197 38.0476 130.149 37.9524 130.1 37.9048C130.003 37.8095 129.955 37.7619 129.81 37.7143C129.713 37.6667 129.568 37.6667 129.471 37.6667C129.133 37.6667 128.842 37.7619 128.6 37.9524C128.359 38.1428 128.165 38.3809 128.02 38.7143H127.875L128.02 37.1905C128.068 37.2381 128.117 37.2857 128.165 37.2857C128.213 37.2857 128.262 37.3333 128.31 37.3333C128.359 37.3333 128.407 37.3333 128.455 37.3333C128.504 37.3333 128.552 37.3333 128.6 37.2857C129.036 37.1905 129.326 37.1428 129.52 37.0952C129.713 37.0476 129.907 37.0476 130.1 37.0476C130.342 37.0476 130.584 37.0476 130.777 37.0952C130.971 37.1428 131.164 37.2381 131.31 37.3333C131.455 37.4762 131.6 37.6667 131.648 37.9048C131.697 38.0476 131.697 38.2857 131.697 38.619V40.1905V40.3809C131.697 40.619 131.697 40.7619 131.745 40.8571C131.793 41 131.938 41.0952 132.132 41.1429V41.3333H130.439C130.39 41.2857 130.294 41.1905 130.245 41.0952C130.197 41 130.149 40.9048 130.149 40.7619C130.003 40.9524 129.81 41.1429 129.471 41.2857C129.181 41.3809 128.939 41.4762 128.649 41.4762C128.31 41.4762 128.02 41.381 127.826 41.1905C127.585 41 127.439 40.7143 127.439 40.3809C127.439 39.9524 127.585 39.619 127.923 39.3333C128.165 39.0952 128.552 38.9048 129.036 38.7619C129.375 38.6667 129.762 38.5714 130.197 38.5238V38.4762ZM129.471 39.2381C129.326 39.3333 129.229 39.4286 129.133 39.5714C129.036 39.7143 128.988 39.8571 128.988 40C128.988 40.1429 129.036 40.2857 129.084 40.3809C129.181 40.4762 129.278 40.5238 129.423 40.5238C129.713 40.5238 129.907 40.3333 130.052 39.9524C130.149 39.6667 130.197 39.3333 130.197 38.9524C130.052 39 129.907 39 129.81 39.0476C129.665 39.1428 129.568 39.1905 129.471 39.2381Z" fill="#FF6400"/>
<path d="M137.066 38.8096L137.695 38.1906C137.986 37.8572 138.179 37.6668 138.179 37.5239C138.179 37.4287 138.131 37.381 138.082 37.381C137.986 37.3334 137.937 37.3334 137.841 37.3334V37.1429H140.259V37.3334C139.969 37.3334 139.727 37.381 139.437 37.5239C139.147 37.6668 138.905 37.8096 138.711 38.0001L138.566 38.1429C138.76 38.4287 138.953 38.6668 139.05 38.8096C139.195 39.0477 139.34 39.2858 139.485 39.5715L139.776 40.1906C139.969 40.5715 140.066 40.762 140.066 40.762C140.211 41.0001 140.356 41.0953 140.55 41.0953V41.2858H137.792V41.0953C137.889 41.0953 137.986 41.0477 138.034 41.0001C138.082 40.9525 138.131 40.8572 138.131 40.762C138.131 40.5715 138.034 40.2858 137.841 39.9048C137.695 39.6191 137.502 39.381 137.308 39.1429L137.066 39.381V40.1429C137.066 40.4763 137.066 40.7144 137.115 40.8096C137.163 41.0001 137.26 41.0953 137.453 41.0953V41.2858H135.083V41.0953C135.373 41.0953 135.518 40.8572 135.518 40.381V38.0001C135.518 37.5239 135.373 37.2858 135.083 37.2858V37.1429H137.453V37.3334C137.308 37.3334 137.163 37.4287 137.115 37.5715C137.066 37.6668 137.066 37.8096 137.066 38.0477V38.8096Z" fill="#FF6400"/>
<path d="M143.839 38.1906C143.887 38.0477 143.887 37.9525 143.936 37.9048C143.936 37.8096 143.984 37.762 143.984 37.6668C143.984 37.5715 143.936 37.4763 143.887 37.4287C143.839 37.381 143.742 37.3334 143.646 37.3334V37.1429H145.29V37.3334C145.097 37.3334 144.903 37.4763 144.758 37.7144C144.71 37.8096 144.613 38.0477 144.468 38.381L143.162 41.8572C143.017 42.2858 142.823 42.5715 142.63 42.762C142.388 43.0001 142.049 43.1429 141.662 43.1429C141.517 43.1429 141.323 43.0953 141.13 43.0477C140.936 43.0001 140.791 42.9048 140.646 42.762L141.082 41.6668L141.275 41.7144C141.275 41.8096 141.275 41.8572 141.275 41.9048C141.275 42.0477 141.323 42.1429 141.42 42.2382C141.517 42.3334 141.614 42.381 141.759 42.381C141.952 42.381 142.146 42.2858 142.291 42.0953C142.436 41.9048 142.484 41.6668 142.484 41.4287C142.484 41.2858 142.436 41.0953 142.388 40.8572C142.339 40.762 142.291 40.5715 142.146 40.3334L141.082 38.0477C140.936 37.762 140.888 37.6191 140.84 37.5715C140.743 37.4287 140.549 37.3334 140.404 37.3334V37.1429H143.065V37.3334C142.968 37.3334 142.871 37.3334 142.775 37.381C142.678 37.4287 142.678 37.4763 142.678 37.5715C142.678 37.6191 142.678 37.6668 142.726 37.762C142.775 37.8572 142.775 37.9525 142.823 38.0001L143.452 39.6191L143.839 38.1906Z" fill="#FF6400"/>
<path d="M149.693 40.6668C149.79 40.8096 149.886 40.9049 149.935 40.9525C150.032 41.0477 150.128 41.0953 150.273 41.0953V41.2858H147.758V41.0953C147.806 41.0953 147.903 41.0953 147.903 41.0477C147.951 41.0477 147.951 41.0001 147.951 40.9049C147.951 40.8572 147.951 40.8096 147.903 40.762C147.855 40.7144 147.855 40.6191 147.806 40.5715L147.274 39.7144L146.79 40.381C146.694 40.4763 146.645 40.5715 146.597 40.6191C146.548 40.7144 146.5 40.8096 146.5 40.9049C146.5 40.9525 146.5 41.0001 146.548 41.0477C146.597 41.0953 146.645 41.0953 146.742 41.1429V41.3334H145.146V41.1429C145.339 41.0953 145.533 41.0001 145.726 40.8096C145.774 40.762 145.92 40.5715 146.161 40.2858L146.935 39.2382L146.21 38.0477C146.065 37.8096 145.968 37.6668 145.92 37.6191C145.774 37.4763 145.629 37.381 145.484 37.381V37.1429H148.048V37.3334C147.951 37.3334 147.903 37.381 147.855 37.381C147.806 37.4287 147.758 37.4763 147.758 37.5239C147.758 37.5715 147.758 37.6191 147.806 37.6668C147.806 37.7144 147.903 37.8096 147.951 37.9525L148.193 38.3334L148.338 38.1906C148.435 38.0953 148.483 37.9525 148.58 37.8572C148.677 37.7144 148.725 37.5715 148.725 37.4763C148.725 37.4287 148.725 37.381 148.677 37.3334C148.629 37.3334 148.58 37.2858 148.532 37.2858V37.1429H150.08V37.3334C149.886 37.381 149.741 37.4287 149.596 37.5715C149.499 37.6191 149.403 37.762 149.209 38.0001L148.532 38.8572L149.693 40.6668Z" fill="#FF6400"/>
<path d="M150.902 38.0477C150.902 37.5715 150.757 37.3334 150.467 37.3334V37.1429H152.837V37.3334C152.692 37.3334 152.595 37.381 152.547 37.4763C152.499 37.5715 152.45 37.762 152.45 38.0001V38.4287H153.563V38.0001C153.563 37.762 153.515 37.5715 153.466 37.4763C153.418 37.381 153.321 37.3334 153.176 37.3334V37.1429H155.546V37.3334C155.256 37.3334 155.111 37.5715 155.111 38.0477V40.4287C155.111 40.9048 155.256 41.0953 155.546 41.0953V41.2858H153.176V41.0953C153.321 41.0953 153.418 41.0477 153.466 40.9525C153.515 40.8572 153.563 40.6667 153.563 40.4287V39.0001H152.45V40.4287C152.45 40.6667 152.499 40.8572 152.547 40.9525C152.595 41.0477 152.692 41.0953 152.837 41.0953V41.2858H150.467V41.0953C150.757 41.0953 150.902 40.8572 150.902 40.4287V38.0477Z" fill="#FF6400"/>
<path d="M157.53 39.3333C157.578 39.7143 157.675 40.0476 157.868 40.2857C158.11 40.5714 158.4 40.7143 158.739 40.7143C159.078 40.7143 159.368 40.6191 159.61 40.4286C159.852 40.2381 160.045 40 160.19 39.6667L160.384 39.7143L159.9 41.3333C159.852 41.3333 159.852 41.2857 159.803 41.2857C159.755 41.2381 159.707 41.2381 159.61 41.2381L159.416 41.2857C159.223 41.3333 159.078 41.3333 158.884 41.381C158.691 41.381 158.546 41.4286 158.352 41.4286C158.013 41.4286 157.723 41.381 157.433 41.2857C157.143 41.1905 156.901 41.0952 156.659 40.9048C156.369 40.7143 156.175 40.4286 156.03 40.1429C155.885 39.8572 155.788 39.5238 155.788 39.1429C155.788 38.4762 156.03 37.9048 156.514 37.5238C156.949 37.1429 157.53 36.9524 158.207 36.9524C158.787 36.9524 159.271 37.0953 159.61 37.381C160.045 37.6667 160.287 38.0952 160.384 38.6667L157.53 39.3333ZM158.836 38.5238V38.381C158.836 38.1905 158.787 38 158.642 37.8572C158.497 37.7143 158.352 37.6667 158.159 37.6667C157.917 37.6667 157.723 37.8095 157.578 38.0476C157.481 38.2381 157.433 38.5238 157.433 38.8095L158.836 38.5238Z" fill="#FF6400"/>
</svg>
