<?xml version="1.0" encoding="utf-8"?><svg viewBox="0 0 22 22" xmlns="http://www.w3.org/2000/svg" xmlns:xlink="http://www.w3.org/1999/xlink"><style>:root>svg{display:none}:root>svg:target{display:block}</style><svg viewBox="0 0 22 22" id="dz" xmlns="http://www.w3.org/2000/svg"><path fill-rule="evenodd" clip-rule="evenodd" d="M10.895 0C8.707.042 6.52.716 4.753 1.98 1.893 3.963.084 7.376 0 10.917c1.136 0 2.23-.042 3.365-.127 1.472-.126 2.945-.253 4.249-.927 1.388-.716 2.355-2.065 2.734-3.54.41-1.676.46-3.408.508-5.128.012-.399.023-.797.039-1.194zm.253 0c3.154.042 6.225 1.475 8.244 3.92 1.64 1.938 2.566 4.467 2.608 6.996-.411-.019-.822-.034-1.234-.048-1.44-.051-2.879-.102-4.318-.332-1.304-.21-2.566-.758-3.45-1.77-.925-.97-1.346-2.276-1.514-3.582-.252-1.728-.294-3.456-.336-5.184zM1.194 11.17c-.385-.013-.77-.027-1.152-.044.042 2.613 1.01 5.184 2.734 7.08 2.02 2.361 5.09 3.752 8.16 3.794-.041-1.517-.083-3.035-.252-4.552-.168-1.475-.546-2.992-1.556-4.13-.883-.97-2.103-1.517-3.365-1.77-1.51-.27-3.048-.323-4.569-.377zm19.607.014c-1.198.056-2.397.111-3.596.237-1.22.169-2.524.464-3.534 1.223-1.093.843-1.808 2.107-2.06 3.456-.31 1.587-.367 3.202-.423 4.823-.013.359-.025.718-.04 1.077 2.565-.042 5.131-.97 7.066-2.697 2.356-2.023 3.744-5.1 3.786-8.177-.4.022-.799.04-1.199.058z"/></svg><svg viewBox="0 0 22 17" id="tg" xmlns="http://www.w3.org/2000/svg"><path d="M21.97.354c-.092-.229-.184-.286-.306-.315-.336-.114-.855.058-.855.058S1.502 6.56.402 7.276c-.244.143-.305.257-.366.343-.184.515.397.743.397.743l4.98 1.516s.183.029.244 0C6.787 9.22 17.02 3.157 17.6 2.957c.092-.029.153 0 .153.057-.214.772-9.104 8.18-9.104 8.18s-.03.028-.06.086l-.49 4.604s-.183 1.402 1.314 0c1.07-1 2.108-1.83 2.597-2.23 1.71 1.115 3.543 2.316 4.338 2.974.397.315.733.372 1.008.372.763-.029.977-.8.977-.8S21.847 2.956 21.97 1.182c0-.171.03-.286.03-.4 0-.2 0-.343-.03-.43z"/></svg><svg viewBox="0 0 22 12" id="vk" xmlns="http://www.w3.org/2000/svg"><path d="M.384.7h3.818c.168 0 .294.082.336.206a22.42 22.42 0 003.23 5.072c.127.165.378.165.462-.04.42-.95 1.133-3.3-.293-4.991-.126-.165-.084-.371.125-.454 1.469-.577 2.896-.701 4.28-.082a.815.815 0 01.504.742l.335 4.825c0 .207.21.372.42.33 1.594-.33 2.56-2.68 3.482-5.155a.83.83 0 01.756-.495h3.524a.46.46 0 01.462.536c-.336 1.732-2.14 4-3.063 5.114-.336.372-.336.908 0 1.32l3.147 3.712c.21.248.042.66-.336.66h-3.986c-.336 0-.63-.124-.881-.371L13.895 9.36c-.126-.165-.42-.206-.546-.04-.335.412-.335.906-.503 2.061-.042.371-.378.619-.756.619H9.363a2.81 2.81 0 01-1.133-.248C6.72 11.01 2.44 8.454.006 1.194-.036.947.132.7.384.7z"/></svg></svg>